<svg width="140" height="60" viewBox="0 0 140 60" xmlns="http://www.w3.org/2000/svg"><g id="amd" stroke="none" stroke-width="1" fill="none" fill-rule="evenodd"><g id="AMD_Logo" transform="translate(15 16)" fill="#000" fill-rule="nonzero"><path d="M25.6 24.247h-6.045l-1.85-4.457H7.63l-1.684 4.457H0L9.083 1.739h6.508L25.6 24.247zM12.42 7.117l-3.303 8.746h6.937L12.42 7.117z" id="Shape"/><path id="Path" d="M47.559 1.74h4.889v22.507H46.83v-14.06l-6.077 7.063h-.859l-6.077-7.062v14.059h-5.616V1.739h4.888l7.234 8.35z"/><path d="M66.677 1.74c8.225 0 12.452 5.114 12.452 11.285 0 6.468-4.095 11.222-13.08 11.222h-9.315V1.739h9.943zM62.35 20.121h3.666c5.648 0 7.333-3.83 7.333-7.13 0-3.862-2.081-7.128-7.4-7.128h-3.6v14.258z" id="Shape"/><path id="Path" d="M90.302 7.076L83.222 0H109v25.756l-7.081-7.075V7.076zM90.294 8.494l-7.29 7.283v10.196h10.203l7.29-7.283H90.294z"/></g></g></svg>