<svg width="140" height="60" viewBox="0 0 140 60" xmlns="http://www.w3.org/2000/svg"><g id="disney" stroke="none" stroke-width="1" fill="none" fill-rule="evenodd"><g id="Disney_wordmark" transform="translate(17 8)" fill="#000" fill-rule="nonzero"><path d="M91.5 19.102c-1.79.414-6.516.644-6.516.644l-.582 1.87s2.34-.199 4.054-.03c0 0 .55-.046.612.613.03.675-.046 1.38-.046 1.38s-.046.414-.612.521c-.658.108-5.094.307-5.094.307l-.719 2.422s-.26.552.337.399c.55-.153 5.2-1.043 5.812-.92.643.153 1.377 1.043 1.163 1.84-.245.966-4.895 3.94-7.71 3.74 0 0-1.483.092-2.722-1.916-1.193-1.916.413-5.519.413-5.519s-.719-1.686-.184-2.3c0 0 .306-.26 1.224-.337l1.147-2.36s-1.3.076-2.065-.875c-.703-.92-.764-1.318-.214-1.564.582-.306 5.966-1.272 9.667-1.15 0 0 1.3-.153 2.448 2.1 0 0 .52.92-.398 1.135M77.55 28.178c-.46 1.12-1.729 2.3-3.258 1.58-1.56-.736-4.023-5.765-4.023-5.765s-.918-1.87-1.101-1.809c0 0-.2-.368-.306 1.686-.153 2.04.03 6.01-.81 6.639-.766.613-1.683.352-2.204-.368-.428-.72-.611-2.453-.367-5.473.276-3.02.964-6.24 1.836-7.237.918-1.011 1.652-.276 1.927 0 0 0 1.178 1.074 3.166 4.247l.337.583s1.805 3.02 1.988 3.005c0 0 .153.153.276.03.183-.046.122-1.027.122-1.027s-.336-3.266-2.019-8.785c0 0-.245-.705-.076-1.38.152-.613.81-.306.81-.306s2.54 1.226 3.778 5.366c1.224 4.14.398 7.895-.06 9.014M65.098 17.554c-.245.43-.352 1.027-1.407 1.196 0 0-10.248.72-10.753 1.44 0 0-.337.43.214.538.581.122 2.906.429 4.007.49 1.194 0 5.201.03 6.67 1.84 0 0 .84.858.81 2.805-.03 1.993-.382 2.699-1.162 3.42-.811.674-7.755 3.801-12.237-.982 0 0-2.05-2.3.719-4.047 0 0 1.988-1.227 7.082.199 0 0 1.53.552 1.468 1.12-.092.612-1.27 1.226-2.982 1.195-1.652-.046-2.876-.843-2.631-.705.23.076-1.79-.981-2.417-.26-.612.674-.459 1.072.153 1.486 1.53.89 7.54.567 9.33-1.44 0 0 .72-.813-.367-1.473-1.07-.613-4.19-.996-5.4-1.042-1.146-.062-5.444 0-6.087-1.12 0 0-.612-.797.061-2.974.704-2.3 5.706-3.188 7.878-3.372 0 0 5.965-.246 7.082.98 0 0 .153.277-.031.69M48.182 31.03c-.72.537-2.249.307-2.692-.307-.429-.536-.581-2.652-.505-5.979.107-3.403.153-7.573.918-8.248.765-.66 1.223-.076 1.53.368.305.46.703.966.764 2.024.092 1.073.352 6.592.352 6.592s.336 5.029-.352 5.55m1.514-17.937c-2.11.72-3.548.49-4.772-.046-.535.966-.856 1.257-1.254 1.318-.612.061-1.147-.92-1.224-1.226-.122-.23-.413-.644-.061-1.58-1.193-1.073-1.285-2.514-1.07-3.48.275-1.134 2.294-5.396 8.412-5.902 0 0 2.998-.215 3.518 1.38h.092s2.906 0 2.845 2.606c0 2.606-3.212 5.857-6.486 6.976m2.723-7.467c-1.927.307-4.895 2.883-6.317 5.014 2.187.398 6.011.245 7.724-3.22 0 0 .81-2.177-1.407-1.794M43.975 7.36c-.611.996-.642 1.594-.351 1.993.719-1.073 1.988-2.76 3.9-4.078-1.468.153-2.707.766-3.549 2.085m52.113 23.564c-1.407 3.464-2.6 6.975-3.288 12.234 0 0-.153 1.027-.995.69-.84-.307-2.217-1.687-2.523-3.634-.306-2.545.826-6.837 3.135-11.774-.673-1.073-1.147-2.668-.764-4.906 0 0 .611-4.14 4.741-7.88 0 0 .49-.414.765-.276.337.153.199 1.472-.076 2.146-.245.644-2.08 3.833-2.08 3.833s-1.148 2.177-.827 3.879c2.172-3.342 7.113-10.119 10.172-7.972 1.943 1.38 1.943 5.826.49 8.401-1.148 2.04-4.39 6.255-8.72 5.274m6.364-10.425c-1.132 1.226-3.151 3.557-4.742 6.715 1.683-.184 3.32-1.12 3.824-1.595.81-.72 2.677-2.667 2.386-5.243 0 0-.183-1.349-1.468.123M33.957 32.732c-5.415 1.655-10.524.889-13.308.153-.076 1.135-.198 1.61-.382 1.794-.214.245-1.989 1.257-2.967-.184-.429-.69-.643-1.932-.765-3.066-6.272-2.852-9.178-7.053-9.27-7.206-.152-.153-1.575-1.64-.152-3.48 1.33-1.656 5.735-3.327 9.682-3.986.153-3.373.52-5.98.994-7.13.566-1.379 1.285-.152 1.927.767.52.69.842 3.65.872 6.01 2.57-.122 4.13.062 6.99.613 3.763.644 6.272 2.576 6.073 4.753-.184 2.146-2.142 3.036-2.906 3.097-.765.061-1.989-.506-1.989-.506-.856-.399-.076-.767.918-1.196 1.101-.536.856-1.073.856-1.073-.397-1.226-5.277-2.039-10.125-2.039 0 2.683.107 7.129.183 9.72 3.396.644 5.935.506 5.935.506s12.39-.353 12.741-8.279c.383-7.941-12.39-15.546-21.796-17.937-9.392-2.469-14.715-.72-15.174-.49-.504.244-.046.336-.046.336s.505.077 1.423.384c.918.306.184.766.184.766-1.607.552-3.396.23-3.748-.506-.352-.72.23-1.38.918-2.345.642-.997 1.376-.966 1.376-.966 11.625-4.063 25.82 3.22 25.82 3.22 13.277 6.714 15.54 14.61 15.296 17.676-.215 3.02-1.377 8.125-9.56 10.609M8.413 21.77c-1.316.613-.398 1.594-.398 1.594 2.478 2.653 5.507 4.324 8.413 5.366.336-4.599.306-6.24.306-8.554-4.497.306-7.098 1.042-8.321 1.594" id="Shape"/></g></g></svg>