<svg width="140" height="60" viewBox="0 0 140 60" xmlns="http://www.w3.org/2000/svg"><g id="ebay" stroke="none" stroke-width="1" fill="none" fill-rule="evenodd"><g id="EBay_logo" transform="translate(20 10)" fill-rule="nonzero"><path d="M12.955 8.697C5.907 8.697.033 11.663.033 20.61c0 7.088 3.95 11.552 13.104 11.552 10.776 0 11.467-7.04 11.467-7.04h-5.222s-1.119 3.79-6.563 3.79c-4.434 0-7.623-2.97-7.623-7.133H25.15v-2.613c0-4.12-2.637-10.469-12.195-10.469zm-.182 3.34c4.221 0 7.099 2.564 7.099 6.407H5.312c0-4.08 3.755-6.408 7.461-6.408z" id="e" fill="#E53238"/><path d="M25.146.033v27.635c0 1.57-.113 3.772-.113 3.772h4.98s.179-1.582.179-3.028c0 0 2.46 3.817 9.15 3.817 7.045 0 11.83-4.85 11.83-11.8 0-6.465-4.395-11.664-11.819-11.664-6.951 0-9.111 3.722-9.111 3.722V.033h-5.096zm12.922 12.15c4.784 0 7.826 3.521 7.826 8.246 0 5.067-3.513 8.382-7.792 8.382-5.106 0-7.86-3.954-7.86-8.337 0-4.084 2.471-8.291 7.826-8.291z" id="b" fill="#0064D2"/><path d="M63.548 8.697c-10.604 0-11.284 5.758-11.284 6.678h5.278s.277-3.361 5.642-3.361c3.487 0 6.188 1.582 6.188 4.625v1.083h-6.188c-8.215 0-12.558 2.383-12.558 7.22 0 4.76 4.013 7.35 9.436 7.35 7.39 0 9.771-4.05 9.771-4.05 0 1.61.125 3.198.125 3.198h4.692s-.182-1.968-.182-3.227v-10.88c0-7.135-5.802-8.636-10.92-8.636zm5.824 12.274v1.444c0 1.883-1.171 6.565-8.07 6.565-3.778 0-5.398-1.87-5.398-4.038 0-3.946 5.455-3.971 13.468-3.971z" id="a" fill="#F5AF02"/><path id="y" fill="#86B817" d="M71.626 9.6h5.938l8.522 16.932L94.588 9.6h5.379L84.48 39.744h-5.642l4.469-8.403z"/></g></g></svg>