<svg width="146" height="28" viewBox="0 0 146 28" xmlns="http://www.w3.org/2000/svg"><g fill="none" fill-rule="evenodd"><path d="M109.675 6.768c0-.147-.12-.239-.363-.274l-3.253-.436-1.459-2.713c-.082-.163-.188-.245-.317-.245-.13 0-.236.082-.318.245l-1.458 2.713-3.254.436c-.242.035-.363.127-.363.274 0 .083.054.179.162.286l2.36 2.111-.558 2.982a.893.893 0 0 0-.013.12c0 .083.023.153.068.211.045.058.113.087.204.087a.586.586 0 0 0 .26-.072l2.91-1.407 2.91 1.407c.09.048.177.072.26.072.086 0 .152-.03.197-.087a.332.332 0 0 0 .068-.212.83.83 0 0 0-.007-.119l-.557-2.982 2.353-2.11c.112-.104.168-.2.168-.287z" fill="#000" fill-rule="nonzero"/><g fill-rule="nonzero"><g fill="#000"><path d="M19.685 4.901c.385-.49.674-.98.674-1.568 0-.882-.77-1.47-1.636-1.47-.867 0-1.54.588-1.733 1.47l-1.156-.392c.29-1.569 1.444-2.549 2.985-2.549 1.636 0 2.984 1.176 2.984 2.843 0 .882-.385 1.764-1.059 2.45-1.251 1.47-1.251 1.47-2.6 3.04h3.563v1.273h-5.873V9.41l3.851-4.509z"/><path d="M15.93 16.664v-4.803h10.302c.096.686.192 1.372.192 2.058 0 7.352-5.872 13.234-12.996 13.234-7.221 0-13.094-5.98-13.094-13.234C.334 6.666 6.207.686 13.331.686v4.705c-4.62 0-8.376 3.823-8.376 8.528 0 4.706 3.755 8.529 8.376 8.529 3.659 0 6.836-2.451 7.99-5.784"/></g><path d="M35.955 7.947c0-3.53.193-4.902.77-5.784.77-1.078 2.119-1.666 3.948-1.666 1.54 0 2.888.49 3.562 1.274.578.588.77 1.47.77 2.745v.882h-2.888c0-1.47-.096-1.764-.289-2.058-.192-.393-.674-.589-1.251-.589-.578 0-1.06.294-1.252.687-.289.588-.385 1.666-.385 4.607 0 2.352.096 3.725.289 4.313.192.49.674.784 1.251.784 1.156 0 1.444-.588 1.54-2.745h2.889c0 1.863-.096 2.647-.482 3.333-.577 1.078-1.925 1.667-3.947 1.667-2.31 0-3.754-.883-4.236-2.647-.192-.784-.289-2.45-.289-4.803zm0 0c0-3.53.193-4.902.77-5.784.77-1.078 2.119-1.666 3.948-1.666 1.54 0 2.888.49 3.562 1.274.578.588.77 1.47.77 2.745v.882h-2.888c0-1.47-.096-1.764-.289-2.058-.192-.393-.674-.589-1.251-.589-.578 0-1.06.294-1.252.687-.289.588-.385 1.666-.385 4.607 0 2.352.096 3.725.289 4.313.192.49.674.784 1.251.784 1.156 0 1.444-.588 1.54-2.745h2.889c0 1.863-.096 2.647-.482 3.333-.577 1.078-1.925 1.667-3.947 1.667-2.31 0-3.754-.883-4.236-2.647-.192-.784-.289-2.45-.289-4.803zM46.642.693h4.525c2.118 0 2.599.098 3.273.686.674.588.963 1.47.963 2.843 0 1.176-.193 2.058-.674 2.646-.385.49-.867.785-1.83.98 1.926.197 2.504 1.177 2.6 3.53 0 .392 0 1.176.096 2.156 0 .686.096.784.193 1.372h-3.081c-.096-.882-.096-.98-.096-2.744 0-1.667-.097-2.549-.482-2.941-.192-.294-.481-.294-1.251-.294h-1.444v5.98h-2.889L46.642.692zm4.043 6.273c1.348 0 1.83-.588 1.83-2.058 0-.784-.193-1.47-.578-1.765-.29-.196-.482-.294-1.156-.294H49.53v4.02l1.155.097zm6.643.883c0-3.333.096-4.51.674-5.49.674-1.176 2.118-1.862 4.043-1.862 2.215 0 3.659.784 4.236 2.352.29.785.386 2.255.386 5 0 3.038-.097 4.41-.578 5.195-.674 1.372-2.118 2.058-4.14 2.058s-3.37-.588-4.043-1.862c-.482-.882-.578-2.059-.578-5.391zm4.717 5.195c.867 0 1.348-.392 1.54-1.274.097-.589.193-2.353.193-4.411 0-2.157-.096-3.431-.288-3.921-.193-.49-.77-.785-1.445-.785-.77 0-1.347.392-1.54.98-.096.589-.192 2.06-.192 4.314 0 1.862.096 3.136.192 3.725.096.98.674 1.372 1.54 1.372zM67.726.693h2.888l.962 5.195c.29 1.863.386 3.627.578 6.862.578-4.411.77-5.588 1.06-6.862L74.367.693h3.274L78.7 5.888c.481 2.353.577 4.02.77 6.862.192-2.45.385-4.215.866-6.862l.867-5.195h2.6L81.01 15.004h-3.177L76.39 8.34c-.192-1.177-.481-3.823-.578-5.294-.385 3.235-.48 3.627-.77 5.294l-1.348 6.665h-3.273L67.726.693zm0 0h2.888l.962 5.195c.29 1.863.386 3.627.578 6.862.578-4.411.77-5.588 1.06-6.862L74.367.693h3.274L78.7 5.888c.481 2.353.577 4.02.77 6.862.192-2.45.385-4.215.866-6.862l.867-5.195h2.6L81.01 15.004h-3.177L76.39 8.34c-.192-1.177-.481-3.823-.578-5.294-.385 3.235-.48 3.627-.77 5.294l-1.348 6.665h-3.273L67.726.693zm17.232 0h3.948c2.31 0 2.984.098 3.658.686.866.686 1.348 1.863 1.54 4.117.097.882.097 2.059.097 3.039 0 2.548-.193 3.823-.578 4.705-.578 1.176-1.925 1.862-3.658 1.862h-4.91L84.958.692zm4.14 12.057c.963 0 1.54-.196 1.733-.784.193-.588.289-1.373.289-3.725 0-2.549-.096-3.627-.289-4.411-.192-.588-.77-.883-1.637-.883h-1.251v9.803h1.155z" fill="#456473"/><path d="M35.955 7.947c0-3.53.193-4.902.77-5.784.77-1.078 2.119-1.666 3.948-1.666 1.54 0 2.888.49 3.562 1.274.578.588.77 1.47.77 2.745v.882h-2.888c0-1.47-.096-1.764-.289-2.058-.192-.393-.674-.589-1.251-.589-.578 0-1.06.294-1.252.687-.289.588-.385 1.666-.385 4.607 0 2.352.096 3.725.289 4.313.192.49.674.784 1.251.784 1.156 0 1.444-.588 1.54-2.745h2.889c0 1.863-.096 2.647-.482 3.333-.577 1.078-1.925 1.667-3.947 1.667-2.31 0-3.754-.883-4.236-2.647-.192-.784-.289-2.45-.289-4.803zm0 0c0-3.53.193-4.902.77-5.784.77-1.078 2.119-1.666 3.948-1.666 1.54 0 2.888.49 3.562 1.274.578.588.77 1.47.77 2.745v.882h-2.888c0-1.47-.096-1.764-.289-2.058-.192-.393-.674-.589-1.251-.589-.578 0-1.06.294-1.252.687-.289.588-.385 1.666-.385 4.607 0 2.352.096 3.725.289 4.313.192.49.674.784 1.251.784 1.156 0 1.444-.588 1.54-2.745h2.889c0 1.863-.096 2.647-.482 3.333-.577 1.078-1.925 1.667-3.947 1.667-2.31 0-3.754-.883-4.236-2.647-.192-.784-.289-2.45-.289-4.803zM46.642.693h4.525c2.118 0 2.599.098 3.273.686.674.588.963 1.47.963 2.843 0 1.176-.193 2.058-.674 2.646-.385.49-.867.785-1.83.98 1.926.197 2.504 1.177 2.6 3.53 0 .392 0 1.176.096 2.156 0 .686.096.784.193 1.372h-3.081c-.096-.882-.096-.98-.096-2.744 0-1.667-.097-2.549-.482-2.941-.192-.294-.481-.294-1.251-.294h-1.444v5.98h-2.889L46.642.692zm4.043 6.273c1.348 0 1.83-.588 1.83-2.058 0-.784-.193-1.47-.578-1.765-.29-.196-.482-.294-1.156-.294H49.53v4.02l1.155.097zm6.643.883c0-3.333.096-4.51.674-5.49.674-1.176 2.118-1.862 4.043-1.862 2.215 0 3.659.784 4.236 2.352.29.785.386 2.255.386 5 0 3.038-.097 4.41-.578 5.195-.674 1.372-2.118 2.058-4.14 2.058s-3.37-.588-4.043-1.862c-.482-.882-.578-2.059-.578-5.391zm4.717 5.195c.867 0 1.348-.392 1.54-1.274.097-.589.193-2.353.193-4.411 0-2.157-.096-3.431-.288-3.921-.193-.49-.77-.785-1.445-.785-.77 0-1.347.392-1.54.98-.096.589-.192 2.06-.192 4.314 0 1.862.096 3.136.192 3.725.096.98.674 1.372 1.54 1.372zM67.726.693h2.888l.962 5.195c.29 1.863.386 3.627.578 6.862.578-4.411.77-5.588 1.06-6.862L74.367.693h3.274L78.7 5.888c.481 2.353.577 4.02.77 6.862.192-2.45.385-4.215.866-6.862l.867-5.195h2.6L81.01 15.004h-3.177L76.39 8.34c-.192-1.177-.481-3.823-.578-5.294-.385 3.235-.48 3.627-.77 5.294l-1.348 6.665h-3.273L67.726.693zm17.232 0h3.948c2.31 0 2.984.098 3.658.686.866.686 1.348 1.863 1.54 4.117.097.882.097 2.059.097 3.039 0 2.548-.193 3.823-.578 4.705-.578 1.176-1.925 1.862-3.658 1.862h-4.91L84.958.692zm4.14 12.057c.963 0 1.54-.196 1.733-.784.193-.588.289-1.373.289-3.725 0-2.549-.096-3.627-.289-4.411-.192-.588-.77-.883-1.637-.883h-1.251v9.803h1.155zM30.853.49h1v26.369h-1z" fill="#000"/></g><text font-family="HelveticaNeue-Bold, Helvetica Neue" font-size="9.882" font-weight="bold" letter-spacing=".247" fill="#000"><tspan x="36" y="26">LEADER SPRING 2020</tspan></text></g></svg>