<svg width="140" height="60" viewBox="0 0 140 60" xmlns="http://www.w3.org/2000/svg"><g id="hilton" stroke="none" stroke-width="1" fill="none" fill-rule="evenodd"><g id="Hilton_Worldwide_logo" transform="translate(17 10)" fill="#000" fill-rule="nonzero"><g id="Group" transform="matrix(1 0 0 -1 0 40)"><path d="M0 20V0h108v40H0V20zm106.195 0V1.8l-52.167.02-52.176.028-.028 18.18-.02 18.171H106.196V20z" id="Shape"/><path d="M9.309 30.294v-.512l.408-.066c.219-.029.542-.086.713-.114l.304-.047-.02-9.546-.028-9.535-.684-.076-.693-.085V9.194H16.528V10.313l-.684.085-.694.076-.028 4.341-.02 4.332h9.5v-4.303c0-3.593-.02-4.313-.133-4.351-.076-.029-.437-.085-.808-.123l-.674-.067V9.194H30.396V10.313l-.637.066c-.342.038-.684.085-.76.114-.104.038-.123 1.744-.123 9.554v9.508l.38.056c.209.029.55.086.76.114l.38.057v1.024H22.987v-1.024l.456-.057c.247-.038.608-.085.807-.114l.352-.056v-8.133h-9.5v8.133l.41.066c1.12.17 1.016.104 1.016.673v.512h-7.22v-.512zM35.99 30.54c-1.975-1.023-1.187-4 1.055-4 .674 0 1.197.247 1.634.75.712.833.712 1.933-.01 2.767-.665.787-1.738.976-2.678.483zM43.409 30.341v-.464l.646-.076.636-.085.029-9.688.019-9.677-.257-.057a14.582 14.582 0 0 0-.665-.104l-.408-.067v-.929h6.744v.929l-.399.067c-.228.028-.522.075-.665.104l-.266.057v20.455H43.41v-.465zM56.45 28.398l-1.928-.578V24.55h-2.944v-1.422h2.84l.028-5.754c.038-6.407.038-6.34.694-7.25.997-1.366 3.98-1.508 7.532-.351l.59.199v1.042l-.286-.066c-.161-.038-.836-.066-1.5-.066-1.73-.01-2.28.199-2.698 1.042l-.219.446-.028 5.384-.029 5.374H62.121v1.422h-3.609v2.227c0 1.223-.029 2.228-.067 2.218-.047-.01-.94-.275-1.994-.597z" id="Path"/><path d="M71.05 24.967c-1.425-.19-3.2-.9-4.198-1.687-1.169-.93-2.109-2.408-2.546-3.99-.294-1.063-.37-3.423-.152-4.683.314-1.763.826-2.853 1.862-3.896 1.235-1.242 2.935-1.848 5.51-1.953 2.716-.123 4.938.597 6.553 2.114 1.53 1.431 2.242 3.09 2.346 5.431.067 1.488-.076 2.616-.484 3.81-.418 1.242-.817 1.878-1.72 2.778-.617.626-.93.844-1.662 1.213-1.244.607-2.203.825-3.847.872-.731.02-1.481.01-1.662-.01zm1.71-1.176c1.111-.208 1.871-.843 2.422-2.037.598-1.29.807-2.54.807-4.92 0-4.749-1.158-6.89-3.752-6.9-.94-.01-1.624.256-2.203.862-1.207 1.232-1.795 4.095-1.549 7.45.247 3.365 1.264 5.185 3.069 5.545.56.105.645.105 1.206 0z" id="Shape"/><path d="M92.251 24.825c-1.187-.152-2.65-.806-3.894-1.744-.38-.285-.741-.522-.789-.522-.047 0-.085.446-.085.996v.995h-5.414v-1.024l.456-.057c.247-.038.56-.085.712-.114l.256-.056V10.35l-.541-.057c-.883-.104-.883-.104-.883-.635v-.465h6.839v.474c0 .266-.029.474-.067.484-.047.01-.351.057-.693.123l-.618.104V21.374l.475.313c.266.17.817.446 1.235.607.656.265.874.303 1.615.313.94 0 1.377-.162 1.871-.683.75-.787.855-1.668.817-7.232l-.028-4.313-.618-.104c-.342-.066-.646-.114-.684-.123-.047-.01-.076-.218-.076-.484v-.474h6.84v.465c0 .53 0 .53-.875.625l-.541.067-.029 5.516c-.028 5.46-.038 5.517-.256 6.17-.294.901-.58 1.366-1.15 1.878-.56.502-1.272.796-2.222.92-.76.103-.826.103-1.653-.01zM33.625 24.085v-.464l.456-.057c.247-.038.56-.085.713-.114l.256-.057-.019-6.502-.028-6.512-.618-.104c-.342-.066-.646-.114-.684-.123-.047-.01-.076-.218-.076-.484v-.474h6.849l-.029.436c-.038.522-.104.579-.854.654l-.551.057V24.55h-5.415v-.465z" id="Path"/></g></g></g></svg>