<svg width="24" height="24" viewBox="0 0 24 24" fill="none" xmlns="http://www.w3.org/2000/svg"><path d="M6.995 14.9h9.622l4.674 6.141a1.081 1.081 0 0 1-.86 1.736H3.469a1.081 1.081 0 0 1-.88-1.71L6.995 14.9z" fill="#802050" fill-opacity=".3"/><path d="M22.838 19.175L15.444 8.987v-6.49h.731c.324 0 .586-.242.586-.54V.863c0-.299-.262-.54-.585-.54H7.254c-.324 0-.585.241-.585.54v1.092c0 .3.261.541.585.541h.67v6.49L1.118 19.12c-1.74 2.517-.529 4.557 2.706 4.557h16.4c3.234 0 4.405-2.016 2.614-4.502zm-12.813-9.23l.242-.453V2.497H13.1v7.032l.276.477 7.3 9.808a1.081 1.081 0 0 1-.868 1.727H4.136a1.081 1.081 0 0 1-.892-1.692l6.78-9.904z" fill="#802050"/><path fill-rule="evenodd" clip-rule="evenodd" d="M6.346.863c0-.5.431-.863.908-.863h8.922c.477 0 .908.363.908.863v1.093c0 .5-.431.863-.908.863h-.41v6.063L23.1 18.985c.931 1.292 1.16 2.562.596 3.535-.558.96-1.805 1.479-3.47 1.479h-16.4c-1.67 0-2.923-.526-3.497-1.493-.58-.977-.382-2.258.523-3.568l6.75-10.049v-6.07h-.347c-.477 0-.908-.362-.908-.863V.863zm.908-.218c-.17 0-.263.122-.263.218v1.093c0 .097.093.218.263.218h.993v6.912L1.383 19.303c-.833 1.206-.899 2.203-.5 2.874.406.683 1.375 1.177 2.941 1.177h16.4c1.568 0 2.524-.49 2.913-1.158.38-.657.3-1.639-.56-2.832L15.121 9.091V2.174h1.055c.17 0 .263-.121.263-.218V.863c0-.096-.093-.218-.263-.218H7.254zm2.69 1.529h3.48v7.268l.223.386 7.288 9.793a1.404 1.404 0 0 1-1.126 2.242H4.136a1.404 1.404 0 0 1-1.158-2.197l6.77-9.89.196-.365V2.174zm.645.645v6.754l-.288.539-6.79 9.918a.759.759 0 0 0 .625 1.188H19.81a.758.758 0 0 0 .608-1.212l-7.31-9.823-.328-.568V2.819h-2.19z" fill="#802050"/></svg>