<svg width="20" height="20" viewBox="0 0 20 20" xmlns="http://www.w3.org/2000/svg"><g id="Page-1" stroke="none" stroke-width="1" fill="none" fill-rule="evenodd"><g id="Icons" transform="translate(-703 -452)"><g id="User-Insights-2" transform="translate(703 452)"><rect id="Rectangle" stroke="#802050" stroke-width="2.483" x="1.241" y="1.241" width="17.517" height="17.517" rx="4"/><path d="M14.774 13.33l-2.847-2.846L14 9.59a.42.42 0 0 0-.039-.786L7.168 6.64a.42.42 0 0 0-.528.528l2.164 6.793a.42.42 0 0 0 .786.04l.894-2.074 2.846 2.847a.42.42 0 0 0 .594 0l.85-.85a.42.42 0 0 0 0-.594z" id="Shape" fill="#802050" fill-rule="nonzero"/><path d="M1.655 7.034c0 .761.43 1.457 1.11 1.797l.72.36a1.023 1.023 0 0 0 1.48-.915c0-.955.691-1.77 1.633-1.927l.85-.142a2.15 2.15 0 0 0 1.687-2.802l-.074-.222a3.445 3.445 0 0 0-6.536 0l-.477 1.432a7.65 7.65 0 0 0-.393 2.42z" id="Path-6" fill-opacity=".3" fill="#802050"/><path d="M.828 9.095c0 1.115.63 2.134 1.627 2.633l1.054.527a1.499 1.499 0 0 0 2.17-1.34c0-1.4 1.011-2.595 2.392-2.825l1.246-.207a3.152 3.152 0 0 0 2.471-4.106l-.108-.326a5.048 5.048 0 1 0-9.577 0l-.7 2.1a11.21 11.21 0 0 0-.575 3.544z" id="Path-6" fill-opacity=".2" fill="#802050"/></g></g></g></svg>