<svg width="24" height="22" viewBox="0 0 24 22" fill="none" xmlns="http://www.w3.org/2000/svg"><path fill="#802050" d="M12 0h2.689v2.591H12zM16.034 0h2.689v2.591h-2.689z"/><path d="M20.998 14.494H3.002c-.552 0-1.002.448-1.002 1V19a1 1 0 0 0 1 1h18a1 1 0 0 0 1-1v-3.506c0-.552-.45-1-1.002-1z" stroke="#802050" stroke-width="2.733"/><path d="M6.286 14.494H2V20h4.286v-5.506z" fill="#802050" fill-opacity=".3"/><path d="M20.998 3.481H3.002c-.552 0-1.002.448-1.002 1v3.507a1 1 0 0 0 1 1h18a1 1 0 0 0 1-1V4.48c0-.552-.45-1-1.002-1z" stroke="#802050" stroke-width="2.733"/><path d="M6.286 3.481H2v5.507h4.286V3.48z" fill="#802050" fill-opacity=".3"/></svg>