<svg width="140" height="60" viewBox="0 0 140 60" xmlns="http://www.w3.org/2000/svg"><g id="norwegian" stroke="none" stroke-width="1" fill="none" fill-rule="evenodd"><g id="norwegian-vector-logo" transform="translate(5 16)" fill-rule="nonzero"><path d="M115.55 21.345c-11.507 5.914-22.841 9.518-28.292 8.396-4.802-.993-2.444-7.554 4.413-12.928h1.449c-5.386 4.532-5.797 10.187-2.38 10.64 3.872.453 13.887-1.64 24.075-6.367l.736.26z" id="Path" fill="#003D50"/><path d="M127.534 13.209c.325 0 .649.064.93.13.195.064.26.064.454.193.065 0 .13.065.195.13.13.065.065.13.13.194.065.26-.065.453-.195.648-.39.647-1.06 1.122-1.644 1.575-.649.518-1.32.928-1.968 1.381-.13.065-.26.195-.39.26.13.064.195.064.325.129 0 0 .065.065.13.065.195-.065.324-.195.519-.26.195-.129.324-.129.52-.064.129.065.324.259.388.388.065.26.065.454-.064.713.865.388 1.643.798 2.444 1.187.194.13.39.194.584.323.065.13-.065.26-.195.324-.324.13-.584.389-.93.389-.324-.065-.649-.13-1.06-.26-.519-.129-1.06-.258-1.579-.323-.39-.065-.865-.13-1.254-.26-.325-.064-.584-.129-.93-.129-.39-.064-.8-.064-1.255-.064-.52 0-.995 0-1.514-.065-.8.324-1.514.712-2.445 1.058-.584.194-1.124.388-1.708.582.194.26.454.324.584.648 0 .064-.065.064-.065.064-.13.065-.195.065-.325.13a16.658 16.658 0 0 1-1.709-.453h-.13c-.259.064-.648.323-.93 0 0-.065-.064-.13-.064-.26 0-.064-.065-.064-.13-.129-.13-.065-.195-.065-.26-.13-.194-.064-.324-.129-.519-.194-.39-.129-.714-.194-1.06-.388-.065-.065-.13-.13 0-.259.195-.13.52-.259.8-.13.26 0 .585.065.801.065-.324-.323-.584-.647-.93-.993-.065-.064-.13-.129-.13-.259 0-.064.065-.129.13-.194s.13-.065.195-.065c.26-.129.324-.194.519-.129.584.259 1.06.453 1.708.712.13.065.26.13.39.13.195-.065.26-.13.39-.195.064 0 .259-.129.324-.194.194-.13.389-.259.519-.324.39-.259.584-.388.93-.582-.454-.195-.995-.453-1.45-.648-.518-.13-.648-.194-1.124-.323-.325-.065-.714-.195-.714-.195-.649-.13-.8-.194-1.384-.323-.26-.13-.584-.13-.93-.26v-.129c.064-.13.26-.259.389-.388.195-.13.324-.26.584-.324.454 0 .8.065 1.32.13.583.064 1.19.129 1.708.194.714.064 1.58.13 2.293.259.065 0 .13.064.195 0 .065.064.13 0 .194.064h.195c.325-.259.714-.582 1.19-.712.26 0 .519.13.649.324.865-.583 1.644-1.187 2.574-1.64.865-.454 1.644-.799 2.293-.993.454-.13.995-.195 1.449-.26-.152.109-.087.109.043.109" id="Path" fill="#003D50"/><path d="M127.988 13.727c-.389.064-.649.13-1.124.323-.39.13-.995.389-1.515.648-.713.324-1.32.712-2.098 1.187-.26.194-.865.647-.93.712-.454-.065-.865-.065-1.32-.13l.066-.064c.584-.453 1.06-.799 1.708-1.122.52-.324 1.385-.799 2.034-1.058a6.382 6.382 0 0 1 1.903-.518c.563-.108.952-.108 1.276.022M119.51 16.619c.129-.065.194-.13.324-.195.13-.064.194-.129.26-.129-.066.194-.066.259 0 .453 0 .13.129.194.129.26-.26.193-.52.323-.8.517-.065-.065-.13-.13-.13-.259-.065-.194 0-.324.065-.518l.151-.13zM119.033 18.777c-.324.194-.649.388-.995.518-.649.324-1.384.712-2.38 1.187-.259.13-.518.194-.8.13-.194 0-.194 0-.389-.065l-1.06-1.058c-.065-.065-.13-.13-.13-.194l.195-.13h.065c.52.195.865.389 1.384.648.195.065.39.194.584.259.195 0 .39-.065.585-.13l.13-.064c.259-.195.389-.26.518-.324.52-.324.995-.583 1.515-.928l.13-.065c.259.086.389.151.648.216M.13 3.69h3.612v.929C5.516 3.043 7.83 3.043 9.28 3.97c1.579.993 1.579 2.504 1.579 4.209v5.05H7.246V9.216c0-.928.065-2.094-.865-2.698-.39-.324-1.255-.324-1.774.065-.93.647-.8 1.446-.8 2.827v3.799H.13V3.69z" id="Path" fill="#D81939"/><path d="M15.141 4.144c-1.514.863-2.292 2.093-2.509 3.669-.13 1.252.13 2.763 1.19 3.863 1.903 1.964 5.256 2.029 7.181 1.382 1.58-.518 2.899-1.446 3.418-3.475.324-1.317.195-2.698-.649-4.015-1.579-2.287-4.802-2.503-6.121-2.287-.8.194-1.73.41-2.51.863m2.899 1.77c.584-.13 1.514 0 2.033.647.52.583.714 1.51.65 2.158a2.288 2.288 0 0 1-1.19 1.77c-.65.324-1.58.324-2.229-.13-.584-.388-.93-1.122-.995-1.834 0-.647.13-1.446.8-2.093.39-.324.65-.389.93-.518" id="Shape" fill="#D81939"/><path d="M43.304 8.072c0 .194-.064.324-.324.928l-1.384 4.209h-3.742L34.306 3.69h4.023l1.255 4.014c.195.712.26.863.26 1.122 0-.194.064-.388.26-1.122l1.254-4.014h3.958l1.255 4.014c.194.712.26.863.26 1.122 0-.194.064-.388.259-1.122l1.254-4.014h4.024l-3.613 9.518h-3.742l-1.32-4.144c-.324-.648-.324-.777-.389-.993" id="Path" fill="#D81939"/><path d="M63.572 5.137c-1.708-1.964-5.256-2.03-6.9-1.576-1.579.453-2.898 1.381-3.482 3.41-.39 1.511-.26 2.957.649 4.274 1.708 2.438 4.996 2.287 6.575 2.093 1.19-.194 3.353-.863 4.153-2.957l.065-.064-3.634-.389c-.13.13-.194.26-.584.583-.584.453-1.903.388-2.444.194-.584-.259-1.125-.993-1.19-1.446h8.112v-.194c0-1.252-.411-2.828-1.32-3.928M61.063 7.23h-4.348c.325-1.057.93-1.381 1.644-1.51.8-.13 2.12.064 2.704 1.51M66.925 13.727c.065.712.26 1.187.325 1.38.93 1.641 2.574 1.965 4.607 1.965 2.033 0 3.612-.13 4.802-1.51 1.06-1.253.93-2.763.93-4.21V3.8h-3.612v.863c-.8-.799-1.644-1.058-2.293-1.122-1.32-.195-3.158.259-4.283 1.705-.93 1.187-1.06 2.892-.93 4.079.195 1.446.995 2.503 2.293 3.216 1.449.798 3.807.582 5.126-.518 0 .388 0 1.251-.13 1.64-.26.583-.8.798-1.19.863-.389.065-1.449.26-1.838-.453-.065-.13-.13-.194-.13-.324 0-.021-3.677-.021-3.677-.021zm4.607-7.166c.455-.13 1.515-.065 2.034.518.324.324.519.799.454 1.252-.065.388-.26.928-.649 1.187-.584.388-1.644.388-2.228.065-.454-.26-.8-.583-.865-1.123-.065-.323 0-.928.324-1.316.26-.302.541-.432.93-.583zM79.622 3.69h3.613v9.519h-3.613V3.69zm0-3.56h3.613v2.438h-3.613V.13zM89.097 6.367c.064-.26.194-.389.389-.583.454-.388 2.228-.259 2.704-.065.519.26.649.648.713 1.317 0 0-1.124-.065-1.903-.065-.93.065-1.32.065-2.098.194-1.58.195-3.158.454-3.548 2.375-.26 1.316.13 2.503 1.385 3.28l.13.065c1.838.798 4.153.518 6.186-.648 0 0 0 .583.13.864h4.218c-.455-.389-.65-1.058-.65-1.964v-4.08c0-.798.066-1.834-.453-2.438-.866-1.123-2.445-1.382-5.192-1.382-2.228 0-3.742.13-4.607 1.252-.39.583-.52 1.058-.52 1.77h3.159l-.043.108zM92.795 9c-.324 1.252-1.06 1.64-1.968 1.77-.52.065-1.384.13-1.774-.583-.065-.13-.13-.518-.065-.647.26-.518.714-.454 1.904-.518L92.795 9z" id="Shape" fill="#D81939"/><path d="M99.176 3.69h3.613v.929c1.773-1.576 4.088-1.576 5.537-.648 1.58.993 1.58 2.504 1.58 4.209v5.05h-3.613V9.216c0-.928.065-2.094-.865-2.698-.455-.259-1.385-.259-1.839.13-.93.647-.8 1.446-.8 2.827v3.798h-3.613V3.691zM32.51 3.561v3.67c-1.124 0-1.838.129-2.573.647v5.31h-3.613V3.668h3.613v1.122c.194-.323.649-.712 1.254-.992.195-.108.866-.238 1.32-.238" id="Path" fill="#D81939"/></g></g></svg>