<svg width="140" height="60" viewBox="0 0 140 60" xmlns="http://www.w3.org/2000/svg"><g id="pennstate" stroke="none" stroke-width="1" fill="none" fill-rule="evenodd"><g id="pennsylvania-state-university" transform="translate(5 9)" fill-rule="nonzero"><path d="M17.934 40.765c-.153-.099-.905-.593-1.672-1.088-4.347-2.798-7.58-5.426-8.624-7.023-.557-.834-.725-1.4-.836-2.614a36.708 36.708 0 0 0-.279-2.05 29.62 29.62 0 0 1-.292-2.43c-.112-1.47.014-1.823 1.184-3.363.46-.608.933-1.329 1.045-1.611.237-.566.279-2.6.084-4.127-.126-.975-.028-1.47.306-1.682.348-.226.71.24 1.073 1.4.376 1.187.794 1.78 1.449 2.105.265.127 1.7.41 3.19.636 1.798.269 2.843.48 3.08.65.418.269.78 1.046 1.226 2.586l.292 1.032-.306.96c-.335 1.032-.39 2.135-.167 2.587.195.353.752.353 2.466-.029 1.616-.353 1.992-.537 2.48-1.187.209-.268.46-.494.571-.494.112 0 .307.268.446.607.334.806.613 1.004 1.38 1.018.626.014.64 0 1.35-.975l.711-.975v-2.572l-.808-1.427c-.446-.778-.808-1.527-.808-1.654s.293-.424.641-.678c.348-.24.697-.594.766-.777.181-.495-.055-1.018-.585-1.23-.432-.17-.446-.226-.418-.834.028-.452-.028-.706-.195-.876-.279-.282-1.17-.31-1.519-.042-.236.184-.236.212.042.763.32.622.767 1.017 1.157 1.017.306 0 .32.227.028.34-.432.17-1.129.084-1.352-.156-.348-.41-1.087-1.978-1.087-2.332 0-.734.836-1.384 1.798-1.384.92 0 1.825.989 1.825 1.978 0 .58.292.48.46-.141.167-.65.055-.99-.6-1.738l-.557-.65.362-.721c.683-1.329.572-2.968-.25-3.858-.363-.396-.46-.424-.976-.34-.306.057-1.073.326-1.672.608-.989.467-1.1.551-1.03.834.11.466-.098.523-.809.198-1.365-.594-4.277-1.032-7.078-1.06l-2.048-.028-.92-1.088c-.989-1.173-1.253-1.371-1.81-1.371-.446 0-1.826 1.272-2.104 1.936-.251.608-.237 2.6.013 3.632.112.452.182.876.126.947-.126.197-.362.155-.557-.113-.168-.227-.196-.227-.488.028-.46.424-2.174 3.066-2.787 4.324-.306.608-.655 1.484-.78 1.95-.223.806-.223.947.014 2.473.279 1.837.223 2.275-.474 3.802-.223.48-.487 1.172-.585 1.54-.097.367-.209.678-.265.678-.18 0-1.295-2.501-1.755-3.942-.92-2.827-.948-3.307-.948-11.956V3.006l1.603-.537C4.6 1.479 8.098.73 11.97.293c2.968-.34 9.642-.34 12.651 0 3.748.424 6.646 1.031 10.032 2.105l1.853.58-.056 8.14c-.056 7.63-.07 8.21-.348 9.453-1.24 5.61-4.403 10.33-10.004 14.952-1.212.989-1.296 1.045-1.686.904-.613-.24-1.031-.692-1.463-1.625-.223-.467-.404-.777-.404-.707 0 .07-.056.551-.14 1.06a7.178 7.178 0 0 0 0 1.894c.098.678.084 1.031-.013 1.159-.14.17-4.11 2.755-4.208 2.741.056 0-.097-.085-.25-.184zm6.437-11.715c.446-.226 1.17-1.003 1.17-1.243 0-.297-.863-.551-1.81-.551-1.561 0-3.93.579-4.208 1.017-.237.382.334.834 1.268 1.003.78.156 3.134 0 3.58-.226zm-.195-4.932c.279-1.257.279-1.2-.07-1.441-.195-.127-.682-.268-1.086-.325-.906-.113-1.31-.466-1.198-1.046.083-.41-.21-1.399-1.018-3.462-.529-1.328-.766-1.653-1.254-1.611-.57.042-.599.014-.292-.382.376-.48.362-.79-.028-1.257-.6-.707-2.006-.608-2.62.17-.236.31-.25.38-.069.734.111.212.446.495.766.65.753.34.641.58-.264.551-.516-.014-.864-.113-1.143-.325-.32-.24-.515-.296-.906-.212-.933.184-1.1-.339-.529-1.498.71-1.427 1.84-2.091 3.525-2.091 1.017 0 1.142.028 1.644.424.293.24.683.608.864.82.794.946 2.87 5.864 2.786 6.599l-.055.452.766-.127c.892-.141 2.48-.042 2.996.212.32.141.348.24.32.735-.042.565-.056.58-.808.791-.669.198-.794.297-1.017.777-.335.735-.766 1.202-1.1 1.202-.224-.029-.266-.1-.21-.34zm33.286-4.183c-1.993-.72-3.107-2.685-2.898-5.03.167-1.795 1.017-3.152 2.424-3.844.697-.353.948-.396 2.118-.396 1.156 0 1.407.057 2.034.382.836.438 1.365 1.031 1.811 2.02.349.778.67 2.46.53 2.813-.07.198-.474.226-3.149.226h-3.065l.097.381c.251 1.018 1.143 1.611 2.522 1.71.752.057 1.937-.155 2.745-.466.223-.085.25-.014.209.933l-.042 1.031-.557.212c-.335.127-1.24.226-2.3.269-1.448.014-1.866-.029-2.48-.24zm3.316-5.906c0-.439-.46-1.202-.85-1.4-.892-.466-2.02-.14-2.41.693-.432.933-.418.933 1.518.933 1.505 0 1.742-.029 1.742-.226zm28.743 5.864l-1.142-.283v-3.377h2.23v1.526l.793.17c1.867.395 3.107-.057 3.107-1.13 0-.948-.64-1.456-2.382-1.894-1.881-.467-2.968-1.187-3.372-2.19-.822-2.092 0-4.155 1.923-4.876 1.351-.495 4.207-.41 5.67.17l.39.155v2.982H94.51v-.693c0-.381-.07-.735-.153-.791-.084-.057-.543-.127-1.017-.17-1.421-.113-2.299.551-2.104 1.597.112.636.585.933 2.09 1.343 2.243.607 3.135 1.187 3.664 2.36.307.664.335.918.279 1.808-.111 1.724-1.045 2.897-2.661 3.392-1.045.297-3.637.254-5.086-.099zm11.314.07a3.704 3.704 0 0 1-.739-.536c-.668-.622-.724-.876-.724-3.9V12.7h-1.254l.042-.96.041-.962.586-.042.585-.043V8.885h2.508v1.837l1.142.042 1.143.043.042.96.041.961h-2.368v2.403c0 2.402 0 2.416.362 2.77.334.339.418.353 1.254.282l.892-.085v.905c0 .55-.07.947-.168 1.003-.097.057-.794.127-1.56.156-1.115.028-1.49-.015-1.825-.198zm5.67-.07c-.92-.466-1.323-1.102-1.393-2.19-.042-.763 0-.99.293-1.512.613-1.074 2.118-1.654 4.208-1.654h1.044v-.593c-.013-.975-.543-1.413-1.727-1.413-1.17 0-1.324.098-1.324.833v.622h-2.09v-2.515l1.087-.41c.947-.353 1.254-.396 2.536-.396 1.588.014 2.118.17 2.926.862.864.735 1.03 1.371 1.086 4.113l.056 2.43h.808v1.979l-1.49-.043-1.505-.042-.042-.537-.042-.537-.265.353c-.738.947-2.898 1.272-4.166.65zm3.15-1.823c.515-.325 1.002-1.06 1.002-1.526 0-.297-.055-.311-.975-.311-1.212 0-1.895.269-2.034.777-.25 1.06.961 1.71 2.006 1.06zm7.62 2.02c-.431-.126-1.184-.748-1.476-1.229-.237-.395-.265-.734-.265-3.306V12.7h-1.254l.042-.96.042-.962.585-.042.585-.043V8.885h2.508v1.837l1.142.042 1.143.043.042.96.041.961h-2.368v2.403c0 2.402 0 2.416.362 2.77.335.339.432.353 1.254.296l.892-.07v.89c0 .523-.07.933-.167.99-.195.112-2.717.197-3.107.084zm6.744-.084c-1.84-.692-2.786-1.865-3.037-3.773-.307-2.261.682-4.352 2.452-5.229.892-.438 2.842-.494 3.845-.099 1.38.537 2.425 2.247 2.592 4.24l.083.96h-6.297l.125.453c.167.594.934 1.314 1.616 1.512.767.212 1.784.17 2.885-.113 1.1-.297 1.1-.297 1.045.904-.042.82-.042.82-.6 1.032-.808.283-4.026.368-4.709.113zm3.037-6.274c-.125-.763-.613-1.201-1.476-1.286-1.004-.1-1.645.381-1.881 1.413l-.084.396h3.511l-.07-.523zm-82.858 5.327v-.989h1.114V9.591h-1.114V7.754h3.316c3.72 0 4.319.099 5.35.89.947.735 1.296 1.498 1.296 2.855 0 1.342-.293 2.02-1.212 2.812-.767.664-1.645.933-3.498 1.032l-1.504.085v2.628l.585.042.585.043.042.96.042.962h-5.016l.014-1.004zm6.799-6.274c.46-.509.488-.58.432-1.37-.098-1.33-.822-1.824-2.675-1.824h-.78v3.844l1.267-.057c1.268-.056 1.268-.056 1.756-.593zm13.682 6.274v-.989h.836V12.7H64.4l.042-.96.042-.962h3.344l.07.537.07.537.347-.381c.614-.679 1.087-.834 2.37-.834 1.309 0 1.74.155 2.48.918.849.877.933 1.23.988 3.971l.042 2.502.516.042.515.043v1.837l-2.257.042-2.257.042v-1.978h.975v-1.908c0-2.204-.153-2.741-.85-3.109-.668-.353-1.713-.212-2.201.269-.362.367-.376.41-.418 2.558l-.042 2.19h1.003v1.978h-4.458l-.042-.975zm11.592.043l.042-.961.488-.07.487-.072V12.7H76.09l.042-.96.042-.962h3.344l.083.566c.042.31.098.494.112.395.041-.339 1.295-1.017 2.062-1.116 1.77-.226 3.232.607 3.79 2.134.25.664.292 1.102.292 3.038v2.261h.975v1.978h-4.458v-1.978h.975v-1.865c0-2.19-.209-2.897-.961-3.208-.71-.297-1.672-.113-2.132.41-.39.438-.39.438-.39 2.557v2.12h.975v1.979h-4.598l.028-.947zm-66.125-6.995c-.516-.806-.808-1.753-.878-2.855-.056-.975-.028-1.23.223-1.738.376-.735.808-1.06 1.156-.876.14.07.418.466.627.876.21.41.641 1.187.976 1.752.334.551.613 1.13.613 1.272 0 .141-.181.367-.39.495-.223.127-.655.494-.976.805-.668.65-1.045.72-1.351.269zm15.423-.975c-.404-.311-.724-.622-.724-.693 0-.155.975-1.385 1.435-1.823.307-.282.404-.31.571-.155.32.268.46.975.32 1.681-.125.65-.5 1.442-.738 1.512-.07.029-.46-.197-.864-.522z" id="path3044" fill="#B1CAE0"/><path d="M17.377 40.37c-4.152-2.657-6.674-4.537-8.443-6.331-1.603-1.611-1.923-2.219-2.09-4.028-.07-.706-.181-1.554-.265-1.908-.07-.353-.181-1.427-.237-2.402l-.097-1.766.613-.876c.334-.48.85-1.216 1.128-1.626.739-1.045.85-1.823.655-4.239-.181-2.091-.111-2.43.474-2.346.209.028.376.297.64 1.102.809 2.346 1.032 2.488 4.835 3.025 2.564.367 3.26.579 3.456 1.031.404 1.018.905 2.713.905 3.08 0 .255-.097.722-.209 1.047-.25.72-.278 2.416-.041 2.656.264.269 1.198.198 2.772-.17 1.338-.324 1.477-.38 2.048-.989.335-.353.67-.65.739-.65.07 0 .25.311.418.693.292.692.53.876 1.407 1.074.307.07.446-.014.878-.523 1.003-1.173 1.268-1.78 1.254-2.869 0-1.045-.056-1.173-1.212-3.363-.28-.523-.474-1.032-.446-1.13.028-.1.348-.354.682-.552.976-.593 1.004-1.639.07-1.992-.404-.156-.418-.198-.334-.75.07-.508.041-.65-.265-.96-.418-.424-1.031-.48-1.477-.113-.279.226-.293.297-.125.678.25.58.822 1.201 1.128 1.201.14 0 .251.057.251.142 0 .17-.892.353-1.17.24-.251-.099-1.324-2.05-1.338-2.402 0-.75.878-1.513 1.756-1.513.487 0 1.212.439 1.518.905.126.198.265.608.307.933.083.664.32.678.501.028.168-.608.042-1.018-.585-1.809-.543-.678-.543-.692-.306-1.046.836-1.215.752-3.208-.167-4.197-.363-.395-.795-.395-1.854-.028-1.31.452-1.95.876-1.894 1.244.055.395-.014.381-1.254-.029-1.463-.494-3.748-.805-6.354-.862l-2.27-.056-.293-.396c-.168-.212-.641-.763-1.06-1.201-.612-.65-.835-.82-1.197-.82-.558 0-1.422.636-1.965 1.427-.348.523-.418.75-.46 1.795-.028.664.028 1.668.126 2.247.195 1.13.139 1.343-.265.99-.14-.128-.32-.24-.39-.24-.418 0-3.024 4.253-3.609 5.878-.348.975-.376 1.144-.265 2.148.07.593.126 1.667.126 2.36 0 1.173-.028 1.356-.53 2.444-.292.65-.57 1.385-.613 1.668-.041.283-.125.495-.18.495-.168 0-1.324-2.657-1.742-3.957C.156 19.893.128 19.469.058 10.976.003 4.616.031 3.204.184 3.091c.278-.184 3.037-1.046 4.64-1.442 9.822-2.473 21.804-2.035 30.86 1.16l.767.268v7.9c0 7.687-.014 7.941-.32 9.41-.99 4.678-3.15 8.522-6.967 12.38-1.588 1.597-4.096 3.716-4.403 3.716-.32 0-.933-.339-1.24-.678-.139-.155-.404-.65-.57-1.088-.28-.692-.335-.749-.405-.466-.195.706-.25 2.346-.111 3.08.139.721.125.792-.154 1.004-.599.48-3.72 2.402-3.957 2.459-.125-.015-.557-.184-.947-.424zm7.148-11.39c.654-.354 1.086-.905.96-1.23-.208-.565-1.978-.692-3.914-.282-1.923.41-2.452.777-1.95 1.342.361.396 1.211.551 2.855.509 1.185-.014 1.56-.085 2.049-.34zm-.307-4.678c-.042-.07-.014-.31.056-.509.376-.989.111-1.286-1.296-1.498-.46-.07-.892-.197-.961-.31-.07-.1-.112-.453-.112-.764 0-.805-1.449-4.705-1.839-4.946-.098-.056-.362-.098-.571-.084-.432.028-.474-.057-.167-.467.292-.395.25-.833-.126-1.187-.738-.706-1.811-.65-2.536.127-.39.41-.39.453-.195.82.112.212.446.495.725.636.543.268.64.438.334.565-.292.113-1.31-.113-1.727-.395-.251-.17-.586-.24-.976-.227-.752.043-.878-.268-.46-1.229.349-.82.934-1.427 1.867-1.922.558-.297.878-.367 1.672-.353.544 0 1.129.085 1.296.184 1.129.635 1.993 2.034 3.302 5.412.822 2.077.864 2.303.6 2.586-.14.155-.084.17.306.085.265-.057 1.059-.1 1.77-.1 1.518 0 2.047.199 2.117.778.056.537-.14.735-.892.933-.473.127-.682.268-.863.593-.641 1.23-1.087 1.654-1.324 1.272zm33.634-4.296c-1.867-.537-2.898-1.738-3.205-3.73-.278-1.852.418-3.887 1.644-4.749.948-.664 1.56-.848 2.829-.848 1.03 0 1.296.043 1.978.382 1.338.664 2.132 2.035 2.3 3.943l.083.96h-6.159v.34c0 .523.572 1.257 1.254 1.61.809.41 2.271.439 3.484.043l.85-.268-.042 1.003-.042 1.003-.627.198c-.92.269-3.567.34-4.347.113zm2.926-6.034c0-.41-.362-1.06-.725-1.328-.18-.128-.599-.226-1.017-.226-.418 0-.836.084-1.017.226-.362.254-.724.918-.724 1.328 0 .283.083.283 1.741.283 1.658 0 1.742-.015 1.742-.283zm29.607 6.077c-.39-.071-.975-.212-1.323-.311l-.627-.184-.042-1.653-.042-1.654h2.23l.041.806c.042.791.042.805.53.918.919.212 2.27.17 2.73-.07.892-.467.892-1.781 0-2.346-.25-.156-1.03-.452-1.755-.65-.725-.198-1.505-.48-1.742-.594-1.337-.692-1.895-1.64-1.895-3.208 0-1.681.808-2.77 2.41-3.264.962-.297 3.637-.269 4.835.042l.906.24.042 1.527.042 1.526h-2.23v-.763c0-.735-.014-.763-.432-.848-.682-.141-1.783-.099-2.117.07-.808.425-1.031 1.386-.474 2.036.237.268.738.494 1.978.862 2.522.749 3.358 1.427 3.693 2.953.418 1.922-.46 3.604-2.3 4.395-.654.254-3.357.367-4.458.17zm10.59-.057c-.67-.254-1.394-1.046-1.52-1.653-.041-.24-.083-1.611-.083-3.039v-2.6h-1.254v-1.837h1.254V8.885h2.508v1.978h2.368V12.7h-2.368v2.403c0 2.388 0 2.416.348 2.77.32.324.446.353 1.184.31l.836-.042v.876c0 .48-.07.918-.139.96-.334.213-2.578.213-3.135.015zm6.046.07c-1.1-.367-1.728-1.073-1.867-2.147-.125-.933.14-1.71.78-2.29.71-.65 1.658-.932 3.47-1.045l1.449-.085-.098-.58c-.125-.82-.404-1.187-1.073-1.356-.53-.141-1.505-.1-2.02.099-.125.042-.195.297-.195.692v.622h-1.95v-1.201c0-1.159.013-1.201.39-1.4.947-.48 1.95-.706 3.092-.706 1.408 0 2.132.184 2.885.735.96.707 1.086 1.13 1.156 4.112l.07 2.615.446.042.445.042v1.81h-2.926l-.083-.566-.084-.565-.362.367a4.395 4.395 0 0 1-.78.594c-.488.268-2.202.395-2.745.212zm2.661-1.95c.544-.282.99-1.031.99-1.639v-.41l-1.087.1c-1.394.127-1.895.41-1.965 1.102-.07.932 1.003 1.385 2.062.848zm7.482 1.88c-.655-.254-1.115-.678-1.407-1.286-.167-.367-.223-1.017-.223-3.236V12.7h-1.254v-1.837h1.254V8.885l1.226.042 1.226.042.042.961.042.961h2.368v1.837h-2.368v2.403c0 2.388 0 2.416.348 2.77.32.325.446.353 1.184.31l.836-.042v.876c0 .48-.07.919-.139.961-.348.184-2.605.184-3.135-.014zm7.064.014c-1.31-.339-2.327-1.201-2.856-2.43-.418-.961-.516-2.7-.21-3.788.753-2.614 3.637-3.886 6.257-2.755 1.295.565 2.187 2.063 2.41 4.098l.098.82h-3.15c-2.437 0-3.148.042-3.148.169.014.48.557 1.357 1.045 1.667.697.439 2.299.537 3.497.227.474-.128.892-.227.948-.227.055 0 .07.424.055.947l-.042.947-.627.198c-.905.268-3.4.353-4.277.127zm2.968-5.992a10.28 10.28 0 0 1-.153-.565c-.154-.565-.864-1.031-1.561-1.031-.864 0-1.365.296-1.63.989-.126.31-.223.636-.223.706 0 .085.724.142 1.825.142 1.658 0 1.798-.015 1.742-.24zm-82.9 5.95c-.056-.057-.098-.467-.098-.919v-.82l.585-.042c.32-.028.571-.085.557-.155-.014-.07-.028-1.979-.028-4.268V9.591h-1.114V7.754h3.26c3.595 0 4.459.141 5.448.919 1.477 1.144 1.686 3.858.404 5.299-.78.876-1.658 1.187-3.623 1.272l-1.672.085v2.826l.544.07.543.071v1.696l-2.355.042c-1.295 0-2.396-.028-2.452-.07zm6.325-6.77c.836-.437 1.17-1.935.599-2.727-.446-.621-1.1-.876-2.243-.876h-1.003v3.816h1.114c.725 0 1.268-.07 1.533-.212zm14.058 5.95v-.918l.446-.043.446-.042.042-2.713.041-2.714-.599-.042-.599-.043v-1.695l1.7-.043 1.7-.042v1.046l.39-.368c.64-.607 1.282-.862 2.257-.876 1.17-.014 2.062.325 2.703 1.046.752.834.92 1.653.92 4.268v2.246h.975v1.838l-2.202-.043-2.201-.042-.042-.876-.042-.877h.976v-2.049c0-2.798-.279-3.32-1.784-3.32-.655 0-.808.056-1.212.466-.39.395-.474.593-.557 1.385-.056.494-.07 1.484-.056 2.19l.042 1.272.53.042.529.043-.042.876-.042.876-2.201.042-2.202.043.084-.933zm11.662.82c-.056-.057-.098-.467-.098-.919v-.82l.53-.042.53-.042.041-2.713.042-2.714-.6-.042-.598-.043-.042-.876-.042-.876h1.658c1.77 0 1.84.028 1.84.75 0 .282.013.282.39-.072.682-.65 1.281-.876 2.34-.876 1.212 0 2.132.424 2.8 1.3.6.792.753 1.626.753 4.141v2.12h.975v1.837h-4.458V18.21h.975v-1.978c0-2.784-.307-3.392-1.714-3.392-1.574 0-1.936.679-1.88 3.463l.041 1.837.53.042.529.043-.042.876-.042.876-2.173.042c-1.212.014-2.23-.014-2.285-.056zm-66.195-7.985c-.502-.607-.836-1.85-.85-3.108 0-.933.042-1.145.376-1.668.557-.848.961-.82 1.463.127.209.396.683 1.23 1.045 1.866.362.621.669 1.215.669 1.314 0 .099-.293.395-.669.664a8.961 8.961 0 0 0-1.003.862c-.418.495-.585.48-1.031-.057zm15.423-.862c-.71-.55-.724-.579-.529-.946.111-.212.516-.721.906-1.145l.71-.763.265.339c.376.466.348 1.456-.07 2.388-.18.41-.39.735-.446.735-.055 0-.431-.297-.836-.608z" id="path3042" fill="#92B2D2"/><path d="M16.457 39.72c-5.057-3.208-8.345-6.006-9.126-7.744-.209-.453-.376-1.216-.46-2.05a26.735 26.735 0 0 0-.278-2.091c-.237-1.37-.334-3.49-.167-3.957.083-.24.515-.933.975-1.54 1.268-1.696 1.352-1.88 1.352-3.434 0-.735-.042-1.851-.112-2.473-.097-.919-.07-1.187.098-1.413.334-.452.668-.113 1.086 1.116.739 2.205.92 2.304 5.615 2.982.906.127 1.812.297 1.979.367.446.17.822.848 1.226 2.205.404 1.328.418 1.667.14 2.36-.112.282-.252.848-.293 1.286-.112.947.111 1.582.585 1.696.39.098 3.372-.523 3.957-.834.223-.113.515-.396.655-.636.445-.75.585-.693 1.17.48.153.311.376.467.822.594.334.099.724.155.836.113.111-.043.46-.396.752-.791 1.421-1.922 1.408-3.11-.055-5.653-.655-1.13-.683-1.456-.168-1.78.767-.481 1.004-.792 1.004-1.273 0-.536-.405-1.031-.836-1.031-.251 0-.265-.07-.196-.622.07-.551.042-.678-.278-.99-.432-.437-1.045-.48-1.505-.084l-.334.283.362.678c.265.495.474.72.808.806.641.197.543.353-.25.353h-.683l-.502-.961c-.725-1.37-.738-1.583-.209-2.205.46-.537 1.115-.763 1.742-.607.613.155 1.295.989 1.407 1.71.097.692.25.805.474.367.292-.551.167-1.159-.418-1.95l-.572-.763.376-.777c.53-1.089.53-2.276.014-3.279-.264-.523-.487-.763-.738-.834-.53-.127-1.672.17-2.633.693-.67.367-.836.523-.808.777.041.396.055.396-1.143-.028-1.421-.495-3.72-.82-6.353-.876l-2.3-.057-1.03-1.145c-1.115-1.229-1.491-1.47-2.02-1.257-.53.198-1.463 1.13-1.784 1.766-.334.678-.39 2.53-.111 3.745.097.396.125.82.083.947-.083.198-.125.198-.418-.085l-.334-.31-.753 1.03c-1.449 2.022-2.494 3.887-2.967 5.328-.195.594-.223.99-.154 1.767.293 3.25.307 3.193-.264 4.48-.293.65-.585 1.455-.669 1.78-.084.325-.195.594-.25.594-.154 0-1.157-2.205-1.575-3.449C.212 20.034.044 18.127.044 9.365V3.048l1.7-.565C6.008 1.084 10.452.307 15.552.067c7.23-.325 14.922.706 20.397 2.755l.586.226v6.995c0 8.86-.168 10.444-1.408 13.694-1.184 3.095-2.8 5.568-5.42 8.323-1.853 1.95-4.597 4.325-4.987 4.325-.697 0-1.505-.919-1.854-2.092-.292-1.031-.473-.353-.487 1.865 0 1.781-.028 1.979-.279 2.163-.446.325-3.525 2.303-3.734 2.388-.083.085-.947-.382-1.909-.99zm7.608-10.5c.599-.17 1.463-.947 1.463-1.314 0-.128-.168-.325-.363-.467-.696-.466-4.207-.127-5.28.495-.71.424-.6.904.292 1.215.67.255 3.107.283 3.888.07zm.195-4.861c-.042-.043 0-.396.07-.778.18-.918.013-1.102-1.157-1.271-1.1-.156-1.268-.297-1.268-1.117 0-.72-1.184-4.056-1.644-4.677-.195-.269-.376-.354-.697-.325-.473.042-.557-.113-.223-.396.335-.283.251-.961-.139-1.328-.71-.679-1.825-.566-2.563.268-.32.353-.335.396-.14.763.112.212.446.509.725.664.278.156.515.34.515.41 0 .226-1.477 0-1.895-.282-.292-.212-.557-.269-.989-.227-.78.085-.892-.24-.39-1.3.627-1.328 1.965-2.204 3.414-2.204 1.058 0 1.602.226 2.243.947.752.848 1.142 1.597 2.229 4.281.78 1.937.947 2.502.85 2.728-.126.297-.112.297 1.783.297 2.146 0 2.41.099 2.341.82-.042.466-.209.593-1.031.805-.502.127-.613.226-.906.862-.376.82-.891 1.3-1.128 1.06zm33.662-4.353c-1.38-.367-2.285-1.088-2.87-2.303-.293-.608-.335-.89-.335-2.318 0-1.484.028-1.682.376-2.332.697-1.342 1.644-2.049 3.163-2.317 1.602-.297 2.982.141 3.97 1.272.684.763 1.06 1.752 1.171 3.066l.07.876h-6.214l.083.523c.098.65.767 1.371 1.477 1.583.739.226 2.174.198 3.121-.057.446-.113.836-.212.864-.212.028 0 .07.41.07.919v.919l-.725.226c-1.003.296-3.33.381-4.221.155zm2.856-6.062c0-.41-.46-1.173-.822-1.371-.265-.141-.78-.212-1.38-.17-.501.029-1.156.721-1.24 1.329l-.083.537h1.77c1.727-.014 1.755-.014 1.755-.325zm29.746 6.105c-.46-.071-1.114-.212-1.462-.311l-.627-.184-.042-1.653-.042-1.654h2.23l.041.806c.042.763.07.805.46.918.237.07.905.127 1.505.142.891.014 1.156-.029 1.462-.269.53-.41.697-1.06.405-1.667-.265-.58-.67-.806-2.23-1.258-1.616-.48-2.062-.679-2.675-1.23-.738-.65-1.045-1.399-1.045-2.53 0-1.13.307-1.865 1.073-2.557.836-.777 1.365-.904 3.595-.904 1.463 0 2.145.056 2.758.254l.809.254v2.968l-1.06-.042-1.058-.043-.014-.706-.014-.707-.627-.17c-1.031-.282-2.313.043-2.647.65-.223.424-.168 1.074.125 1.456.32.41.613.537 2.16.961 1.895.523 3.01 1.286 3.441 2.374.237.594.181 2.275-.084 2.911-.348.834-1.142 1.583-2.034 1.922-.905.34-3.065.48-4.403.269zm10.673-.015c-.738-.226-1.268-.678-1.546-1.314-.223-.494-.265-.947-.265-3.292v-2.714l-.585-.042-.586-.043-.041-.876-.042-.876h1.254V8.9l1.226.042 1.226.043.014.918.014.919 1.212.042 1.212.042-.042.877-.041.876-1.185.042-1.184.043.042 2.43c.042 2.275.055 2.445.348 2.756.265.297.418.325 1.184.282l.878-.042v.862c0 .693-.056.89-.237.961-.473.155-2.368.198-2.856.042zm5.908.029c-1.853-.453-2.62-2.657-1.45-4.17.628-.805 2.467-1.356 4.543-1.356.543 0 .599-.028.599-.353 0-1.385-1.212-2.063-2.815-1.611-.501.141-.53.17-.53.777v.636h-1.95v-2.402l.627-.269c1.06-.466 1.77-.607 2.94-.607 1.895 0 3.01.55 3.609 1.78.334.693.348.82.348 3.236v2.487h.975v1.696h-1.463c-1.42 0-1.463-.014-1.463-.31 0-.622-.195-.707-.627-.24-.654.677-2.131 1.002-3.343.706zm2.675-1.993c.501-.31.822-.848.891-1.484.042-.41.042-.424-.64-.466-.809-.057-1.854.184-2.202.495-.14.127-.25.424-.25.692.013.933 1.253 1.357 2.2.763zm7.58 1.964c-.74-.226-1.269-.678-1.547-1.314-.223-.494-.265-.947-.265-3.292v-2.714l-.585-.042-.585-.043-.042-.876-.042-.876h1.254V8.9h2.368l.042.96.042.962 1.226.042 1.226.042-.042.877-.041.876-1.226.042-1.227.043v1.936c.014 2.218.14 3.108.488 3.377.14.113.627.184 1.129.184h.877v.833c0 .65-.055.848-.236.919-.432.155-2.327.198-2.815.042zm7.119.015a4.401 4.401 0 0 1-3.121-2.502c-.6-1.385-.432-3.688.362-4.96.906-1.455 2.787-2.219 4.626-1.865 2.006.381 3.149 1.865 3.455 4.494l.084.734h-6.312l.084.438c.125.65.613 1.258 1.254 1.555.71.325 2.396.353 3.372.056.376-.113.738-.212.794-.212.055 0 .097.424.07.947l-.042.947-.627.184c-.78.24-3.205.353-4 .184zm2.759-5.936c0-.07-.098-.395-.223-.706-.279-.693-.85-1.046-1.7-1.004-.739.029-1.184.311-1.477.933-.432.919-.418.919 1.588.919 1.101 0 1.812-.057 1.812-.142zm-83.04 4.96v-.833l.585-.043.585-.042.042-4.268.042-4.268h-1.254V7.754l3.51.043c3.456.042 3.526.056 4.292.41 1.477.706 2.146 1.78 2.132 3.405 0 1.187-.432 2.091-1.282 2.756-.836.65-1.77.89-3.455.89H47.96v2.953h1.114v1.696h-4.876v-.834zm6.395-5.864c1.128-.594 1.282-2.162.279-3.137-.39-.382-.516-.41-1.672-.467l-1.24-.042v1.894c0 1.045.041 1.95.111 2.006.167.184 2.048-.014 2.522-.254zm14.086 5.85v-.848h.975v-5.51H64.54v-1.838h1.588c1.714 0 1.756.014 1.756.806v.367l.278-.353c.78-1.004 2.787-1.329 4.11-.664.864.438 1.52 1.3 1.728 2.26.084.396.153 1.668.153 2.827v2.12h.976v1.695H70.67v-1.695h.975v-2.092c0-2.247-.083-2.558-.724-3.052-.474-.354-1.574-.368-2.09-.029-.6.396-.724.961-.724 3.124v1.978l.529.042.53.043v1.667h-4.46v-.848h-.027zm11.704 0v-.848h.975v-5.483l-.585-.042-.585-.042-.042-.877-.042-.876h1.672c1.644 0 1.672 0 1.686.311 0 .594.195.707.557.325.641-.692 2.076-1.003 3.372-.735.836.17 1.63.862 2.034 1.767.334.749.362.989.418 3.236l.056 2.43h.947v1.696h-4.458v-1.695h.975V16.12c0-1.95-.028-2.134-.32-2.572-.655-.975-2.258-1.017-2.94-.085-.265.354-.293.636-.335 2.572l-.041 2.176h1.142v1.696H76.41v-.848h-.027zm-66.07-6.882c-.585-.678-1.087-2.303-1.087-3.533 0-.593.641-1.823 1.003-1.95.14-.042.349-.014.46.085.167.141.906 1.385 1.937 3.293l.292.537-.404.31c-.223.17-.71.58-1.086.905-.767.678-.822.692-1.115.353zm15.702-.763a3.16 3.16 0 0 0-.655-.523c-.222-.127-.39-.325-.39-.452 0-.339 1.38-1.978 1.658-1.978.627 0 .725 1.554.154 2.685-.32.65-.404.678-.767.268z" id="path3040" fill="#6DA8D6"/><path d="M16.234 39.564c-2.396-1.54-3.984-2.67-5.823-4.197-2.773-2.303-3.386-3.278-3.512-5.624-.097-1.823.098-2.643.85-3.773 1.408-2.106 1.435-2.177 1.617-3.533.083-.72.195-1.357.236-1.413.14-.226.363.056.753.946.278.622.515.961.808 1.103.613.325 3.26 1.215 3.609 1.215.39 0 .487-.17.668-1.201.098-.565.223-.862.363-.89.18-.029.236.17.292 1.088.084 1.286.39 1.95 1.352 2.925.877.89 1.546 1.003 3.371.608 1.923-.424 2.369-.622 2.898-1.286.502-.622.544-.608 1.018.296.25.48.431.665.863.806.78.268 1.031.155 1.644-.678 1.045-1.414 1.296-2.53.864-3.788-.18-.523-.167-.692.07-1.724.348-1.455.334-1.964-.042-3.109-.265-.805-.362-.932-.752-1.045-.432-.128-.446-.156-.363-.792.07-.593.042-.692-.306-.96-.474-.382-1.045-.396-1.477-.029l-.334.283.362.678c.265.495.474.72.808.805.655.198.53.354-.25.354h-.697l-.558-1.13c-.64-1.287-.627-1.626.014-2.191.571-.48 1.226-.58 1.867-.283.558.269 1.045.933 1.045 1.427 0 .735.446 1.046.613.439.195-.764.084-1.216-.473-1.936l-.572-.721.349-.735c.501-1.06.57-1.795.292-2.713-.14-.424-.39-.947-.585-1.145-.293-.325-.418-.367-1.031-.297-.418.043-1.115.283-1.77.622-.905.466-1.072.608-1.044.862.013.17 0 .311-.028.311-.042 0-.53-.155-1.087-.353-1.49-.509-3.595-.806-6.284-.876l-2.354-.057-1.213-1.286c-1.114-1.187-1.24-1.286-1.616-1.187-.961.24-2.076 1.512-2.285 2.614-.14.721-.042 2.276.223 3.52.112.522-.097.607-.501.24-.223-.198-.293-.156-.878.621-.892 1.187-1.979 2.982-2.647 4.395l-.572 1.201.056 1.484c.125 3.73.125 3.759-.516 5.172-.32.707-.585 1.385-.585 1.512 0 .594-.292.24-.864-1.003a22.087 22.087 0 0 1-1.602-4.833c-.223-1.074-.25-2.05-.25-9.242V3.02l1.184-.41C5.395 1.253 10.592.334 15.635.108c7.204-.325 14.713.692 20.342 2.784l.6.226-.056 7.786c-.07 8.705-.084 8.946-1.073 11.97-1.24 3.773-3.19 6.769-6.646 10.175-1.658 1.639-3.762 3.377-4.068 3.377-.112 0-.418-.141-.683-.31-.502-.326-1.212-1.584-1.38-2.488-.041-.254-.167-.452-.25-.452-.084 0-.836.692-1.658 1.54-1.965 2.05-2.313 2.756-2.313 4.706 0 .763-.056 1.385-.112 1.385-.055 0-1.03-.551-2.104-1.244zm7.83-10.344c.6-.17 1.464-.947 1.464-1.314 0-.128-.168-.34-.377-.467-.989-.664-5.754.156-5.754.99.014.635.892.946 2.717.946.766 0 1.644-.07 1.95-.155zm.28-5.61c.11-1.004.013-1.117-1.199-1.315-.487-.084-.933-.197-1.003-.254-.209-.212.64-1.003 1.226-1.145.892-.212 2.94-.17 3.497.071.432.184.488.254.446.65-.056.495-.195.622-1.045.834-.501.127-.627.24-.85.763-.278.65-.752 1.215-1.003 1.215-.111 0-.125-.254-.07-.82zm33.814-3.561c-1.393-.297-2.521-1.173-3.12-2.389-.265-.55-.321-.876-.321-2.204 0-1.329.042-1.654.334-2.304.404-.918 1.45-1.907 2.341-2.204 1.017-.353 2.745-.297 3.595.113 1.337.636 2.215 2.105 2.396 4l.084.89h-6.158v.423c0 .51.71 1.385 1.351 1.654.6.254 2.48.24 3.33-.014.376-.113.724-.212.794-.212.07 0 .112.41.112.918v.919l-.725.226c-.92.24-3.177.367-4.013.184zm2.578-6.317c-.098-.65-.71-1.258-1.407-1.385-.878-.17-1.881.551-2.09 1.526l-.084.396h3.65l-.069-.537zm29.635 6.26c-.543-.099-1.226-.268-1.505-.367l-.501-.17v-3.222h2.23l.04.82.043.82.961.183c1.672.325 2.773-.057 2.954-1.032.195-1.031-.432-1.582-2.41-2.162-2.76-.791-3.665-1.738-3.65-3.858 0-1.385.668-2.36 2.02-2.996.626-.296.905-.325 2.647-.325 1.463 0 2.145.057 2.758.255l.808.254v2.954h-2.062l-.041-.735-.042-.735-.78-.184c-1.436-.353-2.634.269-2.634 1.357 0 .82.474 1.187 2.285 1.71 2.3.678 3.024 1.159 3.497 2.303.307.75.279 2.43-.041 3.152-.335.763-1.296 1.568-2.174 1.837-1.045.31-3.19.367-4.403.141zm10.784 0c-1.574-.565-1.7-.862-1.755-4.423l-.042-2.855-.585-.042-.585-.043-.042-.876-.042-.876h1.254V8.9h2.369l.041.96.042.962 1.226.042 1.226.042-.042.877-.041.876-1.226.042-1.226.043v2.006c0 2.19.125 3.038.501 3.307.14.099.627.184 1.129.184h.877v1.667l-.696.156c-.906.17-1.742.155-2.383-.071zm5.727-.028c-1.157-.368-1.923-1.654-1.714-2.897.25-1.484 1.38-2.176 3.943-2.43l1.686-.17v-.424c0-1.272-1.254-1.922-2.815-1.484-.501.141-.53.17-.53.777v.636l-.947-.042-.947-.043-.042-1.144-.042-1.145.67-.311c1.058-.48 1.894-.636 3.273-.565 1.394.07 2.063.297 2.69.932.766.778.822 1.018.877 3.872l.042 2.657h.947v1.696h-2.925V18.72l-.641.565c-.892.877-2.174 1.103-3.525.679zm2.898-1.894c.473-.297.78-.791.947-1.526l.098-.452h-.808c-1.603 0-2.453.424-2.453 1.187 0 .212.14.537.32.72.405.439 1.255.48 1.896.071zm7.76 1.993c-.794-.212-1.365-.636-1.686-1.286-.292-.58-.306-.806-.306-3.35v-2.713l-.585-.042-.585-.043v-1.695l.585-.043.585-.042V8.885h2.368v1.978h2.508l-.041.876-.042.876-1.226.043-1.226.042v2.077c0 2.233.139 3.053.557 3.279.14.085.64.141 1.115.141h.85v.834c0 .749-.028.834-.307.919-.571.17-2.118.226-2.564.113zm6.841-.057c-1.504-.396-2.452-1.187-3.037-2.487-.223-.509-.293-.96-.307-2.063-.013-1.244.028-1.512.349-2.19.808-1.725 1.825-2.417 3.762-2.516 2.062-.113 3.232.509 4.012 2.134.39.82.78 2.685.613 2.953-.041.071-1.449.113-3.148.113h-3.08l.084.453c.223 1.158 1.254 1.808 2.87 1.794.571 0 1.393-.099 1.811-.212.418-.113.78-.212.809-.212.013 0 .027.41.027.905v.918l-.724.226c-.975.325-3.163.41-4.04.184zm2.857-5.893c0-.353-.474-1.286-.753-1.47-1.142-.762-2.55-.183-2.814 1.16l-.084.452h1.825c1.101 0 1.826-.057 1.826-.142zm-83.04 4.946v-.848h1.254V9.62l-.586-.042-.585-.042V7.839l2.926-.042c3.943-.057 4.974.155 6.02 1.271.64.679.877 1.371.877 2.516 0 2.459-1.574 3.674-4.751 3.674h-1.38v2.953h1.115v1.696h-4.876v-.848h-.014zm5.921-5.666c1.198-.34 1.728-1.47 1.254-2.643-.362-.89-.92-1.159-2.313-1.159h-1.086v3.957h.808c.418 0 1.03-.07 1.337-.155zm14.56 5.666v-.848h.975v-5.51H64.54v-1.838h3.204l.084.565.083.566.265-.34c.14-.183.557-.48.92-.65.891-.424 2.647-.367 3.427.128 1.254.79 1.63 1.907 1.63 4.988v2.091h.976v1.696H70.67v-1.696h.975v-4.38l-.418-.48c-.738-.863-2.187-.806-2.814.084-.293.424-.32.636-.362 2.614l-.042 2.148h1.142v1.696h-4.458l-.014-.834zm11.704 0v-.848h.975v-5.51h-1.115v-1.838h3.205v1.159l.515-.452c.71-.636 1.282-.848 2.313-.848 1.589 0 2.494.523 3.121 1.809.362.749.376.904.432 3.207l.042 2.417.488.042.487.043v1.667h-4.458v-1.696h1.003l-.042-2.275-.042-2.275-.446-.41c-.557-.494-1.198-.636-1.908-.395-1.004.339-1.129.678-1.17 3.165l-.043 2.176h.976l.042.848.041.848h-4.402l-.014-.834zm-60.26-2.628c-.223-.127-.474-.269-.53-.34-.055-.07-.348-.084-.626-.042-.363.057-.572 0-.697-.155-.153-.184-.112-.368.237-1.13.682-1.484 2.048-2.29 3.706-2.177.752.042.99.127 1.421.48.864.707 1.073 1.089.961 1.696-.111.58-.863 1.47-1.267 1.47-.223 0-.223-.028-.014-.353.334-.509.278-1.032-.14-1.413-.71-.679-1.741-.58-2.508.226-.39.41-.39.452-.195.805.112.212.446.509.725.664.278.156.515.325.515.396.014.184-1.156.099-1.588-.127zm-5.824-4.268c-.404-.452-.794-1.554-.961-2.699-.14-1.003-.14-1.187.097-1.696.349-.791.864-1.257 1.157-1.06.25.156 2.243 3.547 2.257 3.83 0 .099-.167.283-.376.424-.21.127-.683.523-1.045.848-.739.692-.808.706-1.129.353zm15.716-.749a3.16 3.16 0 0 0-.655-.523c-.222-.127-.39-.325-.39-.452 0-.353 1.38-1.978 1.672-1.978.613 0 .697 1.582.14 2.699-.32.636-.404.664-.767.254z" id="path3038" fill="#568AB9"/><path d="M16.792 39.917c-4.459-2.826-7.942-5.61-9.029-7.207-.627-.932-.905-2.006-.905-3.575 0-1.512.25-2.247 1.268-3.674.891-1.258 1.24-2.05 1.24-2.855 0-.862.167-1.568.362-1.568.097 0 .348.381.557.834.21.452.488.946.613 1.06.14.127 1.087.508 2.104.861l1.867.636.237-.296c.14-.17.279-.608.334-.976.167-1.271.613-1.342.613-.098 0 1.06.237 1.766.864 2.614 1.06 1.427 1.798 1.625 4.208 1.088 1.895-.41 2.034-.48 2.536-1.145.209-.268.446-.494.543-.494.098 0 .32.297.502.678.278.565.418.707.933.862.822.269 1.087.113 1.909-1.102.557-.834.683-1.13.738-1.795a5.81 5.81 0 0 0-.111-1.554c-.153-.665-.153-.905.07-1.837.432-1.866.055-3.731-.836-4.099-.432-.183-.446-.226-.377-.763.14-1.003-.71-1.554-1.7-1.102-.417.198-.431.382-.125 1.003.335.679.613.947.976.947.18 0 .32.07.32.142 0 .254-1.198.17-1.421-.114-.39-.452-.99-1.794-.975-2.204.027-.777 1.17-1.498 2.034-1.286.557.141 1.337 1.102 1.337 1.668 0 .607.335.932.544.522.376-.706.139-1.568-.655-2.444l-.335-.368.39-.763c.307-.608.39-.96.39-1.752.015-.876-.041-1.088-.417-1.696l-.432-.692-.822.014c-.641.014-1.073.127-1.923.523-1.017.48-1.087.537-1.003.876.097.41.014.438-.669.141-1.463-.622-4.514-1.06-7.343-1.06h-1.755l-.864-1.06c-.947-1.158-1.519-1.554-2.048-1.413-.418.113-1.658 1.258-1.937 1.795-.404.777-.39 2.445.028 4.395.098.438-.125.523-.46.17-.195-.198-.237-.198-.487.028-.502.466-2.3 3.335-2.996 4.776-.738 1.555-.724 1.4-.585 5.229.056 1.399.042 1.427-.516 2.685-.32.706-.627 1.455-.682 1.695-.098.41-.126.382-.71-.847-.809-1.696-1.394-3.576-1.729-5.54-.25-1.47-.278-2.318-.278-9.157V3.09l.585-.226C4.127 1.62 8.878.646 13.685.222c2.772-.24 9.39-.085 12.107.283 3.386.466 6.41 1.144 9.266 2.077l1.505.495-.07 7.8c-.07 8.366-.098 8.606-.864 11.334-1.073 3.773-3.455 7.518-6.91 10.88-1.269 1.23-3.512 3.138-3.846 3.28-.084.042-.39-.043-.669-.184-.613-.297-1.254-1.343-1.477-2.43-.083-.41-.209-.736-.278-.736-.07 0-.823.721-1.658 1.583-1.993 2.063-2.355 2.727-2.494 4.748l-.098 1.427-1.407-.862zm7.454-10.754c.683-.282 1.282-.89 1.282-1.271 0-.48-.697-.707-2.16-.665-1.38.029-3.302.467-3.72.848-.488.438-.265.933.543 1.173.725.198 3.484.156 4.055-.085zm.028-4.988c0-.141.055-.466.139-.72.195-.693-.237-1.089-1.365-1.216-.474-.057-.892-.156-.934-.212-.042-.057.084-.31.279-.537.418-.509 1.268-.735 2.758-.735 1.366 0 2.02.198 2.132.636.14.551-.014.735-.85.975-.696.198-.808.297-1.003.75-.209.522-.836 1.3-1.045 1.3-.056.013-.111-.1-.111-.241zm34.066-4.14c-1.533-.255-2.703-1.131-3.289-2.431-.278-.622-.334-.961-.334-2.219 0-1.342.042-1.568.39-2.29.488-1.017 1.435-1.879 2.369-2.161.808-.24 2.299-.283 3.037-.07 1.575.451 2.633 2.006 2.87 4.267l.084.82H57.14l.084.395c.306 1.314 1.324 1.95 3.051 1.922.627-.014 1.394-.113 1.742-.24.348-.127.669-.226.724-.226.056 0 .112.41.112.904v.919l-.585.17c-1.338.352-2.731.451-3.93.24zm2.438-6.19c0-.75-.934-1.569-1.77-1.569-.766 0-1.574.72-1.77 1.583l-.083.396h3.623v-.41zm30.067 6.204a11.898 11.898 0 0 1-1.714-.34l-.78-.226.042-1.582.042-1.583 1.086-.043 1.087-.042v1.668l.878.155c1.17.212 1.672.198 2.243-.042.571-.24.92-.721.92-1.258 0-.905-.572-1.357-2.383-1.88-2.327-.664-3.274-1.37-3.595-2.67-.473-1.908.21-3.449 1.84-4.17 1.24-.536 3.803-.536 5.712.015l.53.155v2.94h-2.09v-.707c0-.805-.112-.904-1.129-1.06-1.352-.212-2.355.424-2.355 1.484 0 .664.502 1.215 1.31 1.413 3.636.933 4.681 1.809 4.681 3.943 0 1.201-.167 1.795-.71 2.445-1.017 1.243-2.884 1.695-5.615 1.385zm10.561-.015c-.808-.197-1.421-.636-1.7-1.229-.223-.452-.264-.947-.306-3.392l-.042-2.854H98.27v-1.696h1.115l.042-.96.041-.962 1.143-.042 1.142-.043v1.979h2.369v1.696l-1.143.042-1.142.042-.042 2.092c-.042 2.586.07 3.151.753 3.434.334.141.696.183 1.1.113l.613-.1v.849c0 .763-.028.862-.306.932-.71.184-2.034.24-2.55.1zm5.824.029c-1.505-.382-2.271-1.597-1.992-3.138.139-.805.515-1.257 1.449-1.738.724-.381.961-.424 2.48-.48l1.672-.057-.07-.706c-.098-.975-.53-1.413-1.519-1.484-.404-.028-.961 0-1.226.07-.446.114-.487.17-.53.721l-.041.594h-1.923v-2.233l.669-.283c1.059-.452 1.714-.593 2.828-.593 1.366 0 2.369.31 3.066.947.808.735.96 1.441.96 4.24v2.288h.976v1.696h-2.926v-.565c0-.31-.041-.565-.083-.565s-.237.183-.418.41c-.613.706-2.3 1.158-3.372.876zm2.856-2.19c.349-.34.71-1.174.71-1.626 0-.212-1.727-.198-2.354.028-.265.1-.599.34-.752.552-.251.339-.251.438-.098.82.251.593.502.734 1.366.663.57-.042.822-.141 1.128-.438zm7.496 2.161c-.78-.197-1.324-.565-1.672-1.116-.278-.466-.306-.707-.348-3.42l-.042-2.94h-1.087v-1.695h1.115l.042-.96.042-.962 1.142-.042 1.142-.043v1.979h2.37v1.696l-1.143.042-1.143.042-.042 2.12c-.055 2.586.07 3.109.767 3.406.334.141.696.183 1.1.113l.613-.1v.849c0 .763-.028.862-.306.932-.71.184-2.048.24-2.55.1zm7.106.015c-.92-.156-2.09-.764-2.55-1.315-.92-1.102-1.296-2.699-1.03-4.31.292-1.78 1.253-2.967 2.814-3.504.92-.311 2.73-.227 3.525.155 1.281.622 2.131 2.077 2.27 3.914l.07.961h-3.079c-3.01 0-3.079 0-3.079.283 0 .848.933 1.738 2.062 1.978.738.156 2.23.015 3.023-.282a1.93 1.93 0 0 1 .432-.142c.042 0 .056.41.056.905 0 .904 0 .904-.446 1.06-.585.198-2.257.438-2.898.424a14.56 14.56 0 0 1-1.17-.127zm2.494-6.247c-.126-.678-.53-1.144-1.184-1.37-.516-.184-.655-.184-1.17 0-.642.226-1.227.932-1.227 1.498 0 .339 0 .339 1.825.339h1.826l-.07-.467zM44.198 19.06v-.848h1.254V9.62l-.586-.042-.585-.042V7.839h3.344c3.832 0 4.403.113 5.448 1.088.808.749 1.073 1.512 1.003 2.84-.07 1.498-.557 2.262-1.839 2.926-.892.452-1.045.494-2.605.55l-1.672.057v2.911h1.114v1.696h-4.876v-.848zm6.478-5.85c.85-.565 1.13-1.64.683-2.586-.362-.792-.892-1.032-2.243-1.032h-1.142v3.985l1.17-.056c.78-.043 1.282-.142 1.532-.311zm14.003 5.85v-.848h.975V12.56H64.54v-1.696h3.204v.396c0 .212.056.48.126.58.097.155.153.14.278-.1.084-.155.474-.452.878-.65 1.602-.805 3.65-.31 4.5 1.102.418.693.418.707.488 3.321l.07 2.629.53.042.529.043v1.667H70.74l.014-.82c.014-.805.014-.82.487-.89l.474-.07v-2.05c0-2.345-.125-2.77-.99-3.18-.598-.282-1.406-.225-1.95.142-.613.41-.752 1.004-.752 3.18v1.978h.947l.042.848.042.848H64.65l.028-.82zm11.704 0v-.848h.975V12.56h-1.115v-1.696h3.205v.565c0 .311.028.566.056.566.027 0 .264-.212.543-.467 1.198-1.144 3.678-1.074 4.793.142.766.833.808 1.06.892 3.857l.07 2.615.529.042.53.043v1.667H82.4v-1.696h.976v-4.366l-.46-.51c-.571-.635-1.421-.776-2.187-.38-.822.423-.976.946-.976 3.264v2.006h.976v1.696h-4.32l-.027-.848zm-60.33-2.713c-.32-.212-.696-.31-1.114-.31-.6 0-.627-.03-.67-.425-.069-.706.725-1.851 1.7-2.459.767-.48.906-.508 1.91-.508.975 0 1.142.042 1.671.424.32.24.711.593.878.805.251.353.265.438.112.975-.195.636-.822 1.4-1.185 1.4-.18 0-.167-.071.07-.481.265-.453.265-.509.056-.919-.46-.89-1.672-1.102-2.578-.438-.613.438-.682.919-.223 1.413.21.226.53.438.71.495.544.141.377.367-.264.367a2.454 2.454 0 0 1-1.073-.339zm-5.67-4.14c-.404-.283-.822-1.385-1.017-2.643-.154-.961-.14-1.173.055-1.71.126-.34.39-.763.585-.947.446-.424.697-.282 1.157.594.181.339.64 1.144 1.003 1.78.362.636.683 1.216.683 1.3 0 .085-.21.269-.446.424a5.09 5.09 0 0 0-.864.735c-.599.608-.822.707-1.156.467zm15.493-.933c-.223-.226-.53-.452-.669-.495-.14-.042-.25-.17-.25-.296 0-.269 1.198-1.838 1.504-1.95.683-.27.892 1.314.32 2.5-.18.368-.362.665-.417.665-.028 0-.251-.184-.488-.424z" id="path3036" fill="#4379B0"/><path d="M16.61 39.79c-4.973-3.193-8.443-6.076-9.181-7.63-.404-.849-.627-2.431-.516-3.746.084-1.116.432-1.964 1.199-2.925.891-1.13 1.142-1.71 1.31-3.08.194-1.54.375-1.668.85-.537.18.423.473.904.654 1.06.181.155 1.143.565 2.132.904l1.797.622.237-.297c.125-.156.306-.679.404-1.159.237-1.201.474-1.046.585.396.07.96.153 1.257.53 1.85.599.948 1.268 1.513 1.992 1.71.669.185 1.143.142 3.037-.296 1.226-.283 1.366-.353 1.895-.918.32-.34.627-.622.71-.622.084 0 .266.297.433.65.223.466.446.706.794.848.864.367 1.115.282 1.811-.636.349-.467.739-1.06.85-1.343.25-.593.265-1.752.042-2.501-.14-.452-.112-.749.097-1.668.432-1.936.084-3.8-.794-4.168-.418-.17-.432-.226-.404-.82.028-.509-.028-.692-.278-.933-.377-.353-1.101-.395-1.589-.07-.292.198-.32.268-.18.593.278.664.807 1.3 1.086 1.3.153 0 .265.071.265.142 0 .07-.251.141-.544.141-.599 0-.794-.198-1.38-1.37-.417-.835-.39-1.386.112-1.894.349-.354.516-.41 1.129-.41.655 0 .78.056 1.268.55.418.425.543.665.543 1.018 0 1.004.446 1.074.697.113.167-.635.014-1.06-.71-1.893l-.419-.495.376-.749c.53-1.06.6-2.12.21-3.052-.168-.396-.433-.834-.572-.961-.404-.382-1.56-.212-2.842.41-1.017.494-1.073.537-.99.89.098.41.182.424-1.198-.085-1.295-.466-3.232-.735-5.977-.82l-2.591-.07-.934-1.116c-.515-.622-1.087-1.188-1.268-1.272-.53-.24-1.059-.014-1.909.848-1.128 1.158-1.31 2.063-.891 4.48.111.621.209 1.144.209 1.158.014.141-.349-.014-.502-.212-.18-.226-.223-.212-.669.297-1.198 1.356-2.8 4.155-3.357 5.85l-.349 1.06.237 1.498c.293 1.88.21 2.558-.474 4.098-.306.679-.599 1.413-.654 1.654-.098.41-.126.381-.655-.763-.725-1.57-1.324-3.321-1.672-4.96-.265-1.244-.293-1.908-.349-9.356L.198 3.091l1.713-.566C6.677.957 11.15.265 17.112.137 23.62.01 28.704.66 34.194 2.327l2.173.665v8.154c0 7.984 0 8.154-.32 9.595-1.115 5.06-3.915 9.468-8.666 13.637-2.62 2.29-2.606 2.29-3.483 1.54-.544-.466-.85-1.046-1.045-2.02-.084-.425-.237-.792-.335-.834-.097-.029-.864.664-1.7 1.54-1.978 2.091-2.354 2.812-2.48 4.776l-.083 1.414-1.644-1.004zm7.706-10.613c.654-.282 1.253-.975 1.198-1.384-.098-.721-2.048-.862-4.278-.325-1.295.31-1.825.593-1.825.989 0 .678.641.89 2.829.904 1.1.014 1.769-.042 2.076-.184zm-.042-5.073c0-.099.055-.381.125-.65.07-.268.098-.55.056-.664-.098-.254-.655-.466-1.519-.58-.905-.127-.947-.155-.669-.565.335-.522.934-.777 2.062-.862 1.881-.14 3.01.156 2.996.778 0 .424-.209.593-.92.777-.599.155-.724.254-1.03.82-.196.353-.433.748-.544.876-.209.296-.557.325-.557.07zm34.135-4.055c-2.257-.382-3.58-1.908-3.72-4.268-.125-2.092.697-3.787 2.243-4.593.544-.283.99-.381 1.853-.438 1.867-.099 3.08.48 3.888 1.865.362.622.766 2.134.766 2.87v.451h-6.312l.098.396c.167.707.571 1.23 1.198 1.583.53.296.794.353 1.728.339.975-.014 1.797-.156 2.522-.438.167-.057.195.099.195.834v.904l-.53.155c-.655.198-2.326.453-2.884.424-.223.029-.696-.028-1.045-.084zm2.425-6.176c-.168-.707-.46-1.13-.934-1.357-.99-.48-1.992-.14-2.452.82-.153.325-.279.678-.279.763 0 .127.53.17 1.881.17h1.881l-.097-.396zm30.457 6.218c-.558-.057-1.658-.283-2.369-.466l-.487-.128.027-1.596.028-1.597h2.034l.042.805c.042.806.042.806.558.919.278.056 1.003.113 1.602.113 1.059 0 1.1-.014 1.505-.467.53-.593.543-1.257.041-1.85-.278-.34-.654-.524-1.783-.877-1.937-.608-2.118-.678-2.745-1.13-1.393-1.032-1.658-3.449-.53-4.848.502-.607 1.171-.975 2.174-1.2 1.282-.27 3.316-.156 4.807.296l.53.155v2.926h-2.09v-.778c0-.72-.028-.777-.39-.876-.78-.226-2.09-.127-2.508.184-.6.452-.795.947-.6 1.554.21.65.586.877 2.132 1.3 2.898.778 3.86 1.71 3.86 3.76 0 2.176-1.101 3.377-3.497 3.759-.85.14-1.366.155-2.341.042zm9.99-.099c-.864-.24-1.56-.919-1.756-1.724-.083-.34-.153-1.766-.153-3.165v-2.544h-1.115v-1.696h1.115V9.054l1.184-.042 1.184-.043v1.922h2.369v1.696l-1.142.042-1.143.043-.042 2.26c-.028 1.937 0 2.333.21 2.742.292.566.793.764 1.671.622l.585-.085v.848c0 .848 0 .848-.446.933-1.128.17-1.894.184-2.521 0zm5.851 0c-1.281-.367-1.936-1.201-1.936-2.473 0-1.894 1.463-2.826 4.389-2.84h1.226v-.636c0-.495-.084-.735-.39-1.088-.335-.382-.516-.453-1.143-.51-.418-.027-.975 0-1.24.071-.446.113-.488.17-.53.721l-.041.594h-1.923v-2.233l.669-.297c.961-.424 1.755-.58 2.884-.58 1.296 0 2.313.312 2.996.933.808.735.96 1.442.96 4.24v2.317h.976v1.696h-2.926v-.565c0-.31-.041-.565-.083-.565s-.237.183-.418.41c-.669.777-2.257 1.144-3.47.805zm2.898-2.077c.432-.382.767-1.103.78-1.654 0-.127-.292-.17-1.002-.17-1.728 0-2.564.623-2.202 1.598.181.48.516.65 1.296.65.515.014.724-.071 1.128-.424zm7.413 2.077c-.808-.226-1.575-.947-1.77-1.64-.07-.268-.139-1.695-.139-3.15v-2.657h-1.115v-1.696h1.115l.042-.933.042-.932 1.156-.029 1.156-.028v1.922h2.369v1.696h-2.369v2.374c0 2.077.028 2.416.265 2.812.307.495.85.664 1.7.537l.543-.085v.848c0 .848 0 .848-.446.933-1.156.198-1.922.212-2.55.028zm7.064-.014c-.962-.212-1.296-.368-2.007-.933-1.81-1.441-1.95-5.285-.25-7.066.766-.79 1.616-1.158 2.912-1.243 2.243-.127 3.608.777 4.305 2.911.153.48.292 1.187.292 1.583v.706h-3.065c-2.995 0-3.065 0-3.065.283 0 .424.348 1.046.836 1.455.794.679 2.647.806 4.096.297.293-.099.558-.198.585-.198.028 0 .056.41.056.919v.918l-.585.17c-.697.198-2.23.41-2.815.396-.25 0-.822-.1-1.295-.198zm2.675-6.176c-.126-.664-.46-1.102-1.003-1.328-1.185-.509-2.202.042-2.578 1.37l-.111.41h3.79l-.098-.452zM44.323 19.06l.042-.848h1.087l-.042-4.352-.042-4.353H44.31V7.811l3.372.028c3.929.042 4.375.127 5.406 1.173.697.706.975 1.399.975 2.487 0 1.046-.237 1.71-.85 2.388-.85.933-1.686 1.244-3.65 1.314l-1.644.071v2.94h1.114v1.695H44.24l.083-.848zm6.144-5.751c1.004-.509 1.38-1.696.878-2.713-.376-.75-.975-1.032-2.243-1.046l-1.073-.014-.042 2.006-.041 2.007h1.017c.696 0 1.184-.085 1.504-.24zm14.212 5.751v-.848h.975V12.56H64.54v-1.696h1.602c1.602 0 1.602 0 1.602.34 0 .183.042.437.084.564.07.198.14.17.446-.155.585-.608 1.365-.89 2.41-.904 1.268 0 2.243.508 2.828 1.47.418.692.418.692.488 3.32l.07 2.629.53.042.529.042v1.668h-4.32v-1.696h.976v-1.95c0-1.625-.042-2.049-.279-2.544-.432-.975-1.672-1.314-2.62-.734-.724.452-.863.975-.863 3.236v1.978h.975v1.696H64.68v-.806zm11.704 0v-.848h.975V12.56h-1.115v-1.696h3.205v.565c0 .622.125.707.376.297.293-.48 1.547-1.003 2.41-1.003 1.129 0 1.77.226 2.467.876.877.82 1.03 1.455 1.03 4.31v2.303h1.115v1.696h-4.458V18.24l.53-.043.529-.042v-2.05c0-1.766-.042-2.119-.28-2.5-.515-.877-1.74-1.145-2.59-.566-.739.509-.823.792-.823 3.11v2.09h.976v1.696h-4.32v-.876h-.027zm-60.037-2.557a2.214 2.214 0 0 1-.543-.311c-.112-.1-.488-.17-.85-.17-.613 0-.641-.014-.683-.424-.07-.706.724-1.851 1.7-2.459.766-.48.905-.509 1.909-.509.975 0 1.142.043 1.671.424.335.24.725.636.864.89.251.439.251.495.042 1.075-.25.664-.543.989-1.017 1.13l-.32.1.292-.51c.362-.621.223-1.06-.474-1.483-.627-.382-1.323-.354-1.95.07-.71.495-.808.961-.293 1.498.223.226.544.452.71.495.182.042.321.141.321.212 0 .17-.947.141-1.38-.028zm-6.256-4.678c-.32-.537-.669-1.71-.794-2.742-.098-.82.209-1.738.752-2.232.39-.354.669-.198 1.115.636.181.339.64 1.158 1.003 1.794.376.65.683 1.23.683 1.286 0 .057-.251.283-.558.48a6.763 6.763 0 0 0-.933.792c-.488.58-.92.565-1.268-.014zm15.716-.636a13.7 13.7 0 0 1-.752-.608c-.167-.155.32-.932 1.017-1.625.53-.523.585-.55.808-.325.348.354.293 1.597-.125 2.403l-.32.636-.628-.48z" id="path3034" fill="#2D70A9"/><path d="M16.75 39.833c-4.82-3.039-8.318-5.936-9.265-7.674-.404-.735-.404-.791-.404-2.868 0-2.375-.056-2.205 1.198-3.957.808-1.13 1.24-2.247 1.24-3.236 0-.523.14-1.06.265-1.06.055 0 .264.41.487.918.279.65.53.99.836 1.173.627.382 3.65 1.343 3.901 1.258.21-.085.39-.622.572-1.696.153-.933.418-.537.501.791.084 1.315.195 1.57 1.143 2.615 1.03 1.13 1.616 1.243 3.957.72 1.63-.353 1.992-.536 2.508-1.187.209-.268.46-.494.543-.494.084 0 .25.24.362.537.293.72.641 1.003 1.38 1.116.64.085.64.085 1.212-.664.891-1.145 1.17-1.78 1.17-2.699 0-.438-.084-.99-.181-1.23-.195-.48-.167-.748.195-2.12.418-1.554-.056-3.377-.99-3.829-.375-.184-.417-.254-.306-.551.153-.41-.083-1.088-.446-1.286-.404-.226-1.184-.155-1.532.127l-.32.255.334.621c.18.34.557.764.822.947l.487.34-.627-.043c-.599-.042-.64-.07-1.086-.876-.78-1.4-.78-2.021 0-2.487 1.156-.721 2.521-.043 2.717 1.328.125.862.376.975.668.297.293-.693.154-1.187-.501-1.936l-.544-.622.363-.749c.53-1.102.585-2.162.125-3.165-.488-1.074-.822-1.272-1.783-1.074-.418.084-1.185.381-1.7.65-.878.452-.948.508-.864.848.07.31.056.353-.167.254a13.689 13.689 0 0 0-2.968-.848c-1.783-.297-4.751-.509-5.754-.41l-.878.085-.6-.791c-.905-1.187-1.615-1.781-2.117-1.781-.53 0-1.853 1.215-2.243 2.05-.307.692-.334 2.105-.056 3.532.098.537.167 1.017.14 1.046-.028.028-.168-.043-.307-.17-.334-.297-.376-.297-.725.085-1.128 1.23-3.204 4.904-3.552 6.303-.21.82-.21 1.017 0 2.473.264 1.85.195 2.345-.516 3.985-.265.621-.557 1.286-.627 1.47-.125.31-.167.254-.627-.707-.71-1.47-1.198-2.925-1.616-4.72-.348-1.555-.362-1.583-.418-9.553L.1 3.176l1.31-.424C4.517 1.734 7.457 1.084 11.205.589 13.225.321 14.242.28 18.1.264c2.87 0 5.086.057 6.061.17 4.069.48 7.942 1.3 10.91 2.303l1.295.439-.055 8.14-.056 8.139-.362 1.484c-1.366 5.624-4.375 10.033-10.032 14.668l-1.073.876-.473-.197c-.67-.283-1.227-1.103-1.505-2.19-.126-.51-.307-.962-.418-.99-.098-.028-.892.678-1.756 1.597-2.006 2.106-2.285 2.657-2.41 4.65l-.084 1.44-1.393-.96zm7.775-10.754c.71-.354 1.198-1.032 1.003-1.4-.307-.579-1.644-.706-3.665-.339-1.435.255-2.27.58-2.466.933-.195.367.376.919 1.073 1.046.293.042.627.113.752.141.112.028.767.028 1.45-.014.877-.057 1.42-.155 1.853-.367zm-.21-5.088c.042-.183.112-.494.168-.678.042-.198 0-.466-.098-.608-.195-.268-1.003-.508-1.741-.523-.502 0-.558-.14-.237-.636.362-.55.961-.706 2.73-.706 1.826 0 2.077.099 2.077.848 0 .438-.042.466-.711.636-.557.141-.766.268-.947.593-.474.89-.809 1.314-1.045 1.357-.223.028-.251-.028-.195-.283zm33.175-4.197c-1.408-.509-2.202-1.399-2.634-2.925-.53-1.88.112-4.24 1.45-5.257 1.769-1.357 4.764-1.116 5.963.495.585.777.989 1.922 1.045 2.939l.041.834-3.12.042-3.122.043.084.438c.125.621.669 1.3 1.296 1.61.683.34 2.745.354 3.636.015l.585-.226v1.78l-.529.184c-.293.099-1.31.212-2.257.24-1.421.043-1.853 0-2.438-.212zm3.371-5.582c.126-.325-.278-1.257-.654-1.54-.474-.353-1.408-.48-1.937-.254-.655.282-1.31 1.413-1.045 1.822.14.24 3.553.212 3.636-.028zm29.245 5.681c-.306-.07-.794-.198-1.086-.268l-.53-.142v-3.109h1.045c.571 0 1.031.043 1.031.113 0 .071-.014.396 0 .763.014.65.014.65.641.82.753.198 2.02.212 2.494.028 1.017-.395 1.254-1.54.474-2.331-.446-.438-.766-.594-2.815-1.201-1.978-.594-2.772-1.57-2.786-3.392 0-.834.07-1.187.306-1.668.892-1.695 3.511-2.275 6.828-1.512l1.003.226v2.77l-1.045.043-1.045.042v-.735c0-.735 0-.735-.516-.876-1.31-.367-2.494-.042-2.884.763-.279.58-.279.693-.014 1.215.21.41 1.1.99 1.519.99.46 0 2.424.72 3.051 1.13.948.608 1.407 1.625 1.324 2.954-.098 1.766-.99 2.897-2.634 3.335-.822.226-3.455.254-4.36.042zm10.603-.17c-1.086-.635-1.114-.734-1.198-4.112l-.07-2.996-.585-.042-.585-.042v-1.668h1.254V9.026h2.23v1.837h2.368v1.696h-2.396l.041 2.558.042 2.557.404.354c.362.325.502.353 1.226.282l.808-.07v1.639l-.53.085c-1.156.198-2.437.099-3.009-.24zm5.769.015c-.822-.424-1.24-1.173-1.24-2.205 0-1.88 1.49-2.84 4.416-2.84h1.143v-.566c0-.734-.251-1.257-.71-1.498-.405-.211-1.45-.268-2.188-.113-.404.085-.432.128-.432.707v.622h-1.811l.041-1.159.042-1.159.906-.325c2.006-.735 4.36-.509 5.434.523.794.763.975 1.569.975 4.282v2.204h.404c.404 0 .404.015.446.848l.042.848h-2.843v-.565c0-.65-.07-.692-.432-.226-.752.933-2.94 1.258-4.193.622zm3.385-1.64c.418-.24.934-1.187.934-1.695 0-.297-.07-.311-1.045-.311-1.533 0-2.3.41-2.3 1.243 0 .382.502.99.879 1.06.446.085 1.086-.042 1.532-.297zm7.078 1.64c-1.142-.594-1.184-.707-1.254-4.113l-.07-2.996-.585-.042-.585-.042v-1.682h1.254V9.026h2.23v1.837h2.368v1.696h-2.396l.041 2.558.042 2.557.404.354c.362.325.502.353 1.226.282l.822-.07-.041.791c-.056.933-.126.975-1.784 1.003-.85.015-1.198-.056-1.672-.296zm6.939.056c-1.881-.706-2.815-2.19-2.8-4.437.013-1.555.348-2.43 1.267-3.363.906-.919 1.784-1.286 3.08-1.286 2.256 0 3.761 1.286 4.18 3.603.083.452.152 1.018.152 1.23v.395h-6.297l.097.311c.293.947.6 1.343 1.352 1.767.613.339 2.856.325 3.636-.015.293-.127.544-.24.558-.24.014 0 .014.396 0 .876l-.014.89-.544.199c-.85.353-3.86.381-4.667.07zm3.358-5.78c0-.537-.46-1.243-.99-1.526-.627-.325-1.56-.198-2.062.283-.39.367-.766 1.286-.627 1.512.042.07.878.113 1.881.113h1.798v-.382zM44.337 19.06v-.848h1.115V9.45h-1.115V7.867l3.595.043c3.455.042 3.608.056 4.207.381 1.213.65 1.784 1.47 1.91 2.77.11 1.102-.168 2.063-.809 2.812-.78.904-1.7 1.215-3.776 1.314l-1.644.085v2.94h1.254v1.695h-4.737v-.848zm6.033-5.709c.752-.325 1.115-.848 1.17-1.681.112-1.456-.905-2.276-2.717-2.205l-.947.042-.042 2.007-.042 2.007h1.06c.598.028 1.267-.057 1.518-.17zm14.309 5.71v-.849h.975V12.56H64.54v-1.696h3.204v.565c0 .311.056.566.112.566.055 0 .292-.184.501-.424 1.101-1.173 3.54-1.117 4.71.099.808.833.933 1.413.933 4.14v2.374l.53.043.529.042.014.82.014.82h-4.278V18.21h.976l-.014-1.95c-.014-2.247-.14-2.784-.808-3.25-.627-.424-1.644-.438-2.16-.028-.683.55-.78.932-.78 3.165v2.063h.975v1.696H64.68v-.848zm11.704 0v-.849h.975V12.56h-1.115v-1.696h3.205v.565c0 .311.042.566.083.566.042 0 .32-.212.613-.48 1.17-1.075 3.205-1.06 4.445.013.92.792 1.129 1.597 1.129 4.367v2.317h.947l.042.848.042.848h-4.32l.042-.848.042-.848h.975l-.041-2.148c-.042-1.837-.084-2.218-.307-2.557-.362-.537-.92-.806-1.7-.806-.571 0-.71.07-1.184.551l-.543.551v4.41h.975v1.695h-4.32v-.848h.015zM16.43 16.515c-.223-.071-.516-.226-.655-.354-.168-.155-.446-.212-.85-.183-.53.042-.613.014-.641-.255-.056-.395.543-1.568 1.045-2.049.92-.876 2.382-1.286 3.47-.989.306.085.835.396 1.142.707.501.48.585.621.585 1.144 0 .509-.084.693-.544 1.159-.613.622-1.03.749-.585.17.404-.523.362-.848-.18-1.414-.391-.395-.572-.48-1.088-.48-.682 0-1.379.367-1.727.904-.21.325-.21.382.014.721.125.198.487.495.78.65.292.156.53.311.53.34 0 .112-.865.056-1.296-.071zm-6.41-4.904c-.71-1.441-.877-3.137-.39-4.098.307-.622.794-1.003 1.003-.791.07.07.586.946 1.17 1.95l1.046 1.837-.376.325c-1.338 1.159-1.714 1.441-1.895 1.441-.126 0-.376-.297-.558-.664zm15.647-.551a15.78 15.78 0 0 1-.683-.551c-.083-.085.641-1.102 1.185-1.625.487-.467.501-.48.696-.212.21.282.251.55.21 1.286-.029.494-.488 1.625-.656 1.61-.07-.014-.404-.24-.752-.508z" id="path3032" fill="#025397"/></g></g></svg>