<svg width="140" height="60" viewBox="0 0 140 60" xmlns="http://www.w3.org/2000/svg"><g id="target" stroke="none" stroke-width="1" fill="none" fill-rule="evenodd"><g id="Target_Logo" transform="translate(5 9)" fill-rule="nonzero"><path d="M60.148 6.704v3.586H52.86v20.643h-4.24V10.29h-7.288V6.704h18.816zm13.378 6.151v18.209h-3.86v-1.818c-.49.546-2.26 2.212-5.45 2.212-2.448 0-4.718-.849-6.378-2.393-1.819-1.698-2.789-4.081-2.789-6.898 0-7.05 5.499-9.605 9.188-9.605 2.94 0 4.39 1.091 5.229 1.909l.02.02c.1.101.17.162.23.162.04 0 .07-.04.12-.303l.11-.566.1-.495c.06-.303.27-.434.69-.434h2.79zm-9.399 15.088c3.58 0 5.709-2.332 5.709-6.23 0-1.556-.51-2.99-1.43-4.01-.969-1.08-2.299-1.646-3.849-1.646-3.499 0-5.759 2.353-5.759 5.998 0 2.838 1.4 5.888 5.33 5.888zm22.546-14.957c-.2-.141-.94-.414-1.77-.414-1.33 0-3.79.273-5.34 2.111-.1.121-.17.172-.23.172-.02 0-.049-.03-.08-.172l-.17-.717-.149-.667c-.08-.313-.28-.434-.69-.434h-2.61v18.21h3.85v-10.04c0-3.342 1.61-4.968 4.929-4.968.2 0 .32.01.41.03l.08.01h.03l1.78-3.08-.04-.04zm6.688 16.846c5.709 0 8.358 1.616 8.358 5.08 0 3.676-3.67 6.059-9.338 6.059-4.929 0-7.989-1.909-7.989-4.969 0-1.737.86-3.08 2.55-3.988-1.23-.637-1.83-1.576-1.83-2.88 0-1.322.7-2.464 2.09-3.382-1.38-1.414-2.179-3.293-2.179-5.171 0-2.343.85-4.363 2.44-5.827 1.48-1.364 3.46-2.111 5.588-2.111 1.32 0 2.56.283 3.669.838 1.07-.606 2.34-.899 3.9-.899.83 0 1.62.132 2.179.364l.04.02-1.78 3.181h-.03c-.109-.02-.5-.08-.92-.08l-.49.02a7.808 7.808 0 0 1 1.26 4.262c0 2.06-.75 3.979-2.109 5.403-1.47 1.545-3.5 2.352-5.86 2.352a8.17 8.17 0 0 1-3.388-.716c-.42.303-.63.687-.63 1.162.01 1.07 1.72 1.282 4.469 1.282zm4.259 5.302c0-1.282-.99-1.707-4.609-2l-.58-.04c-.81-.06-1.65-.131-2.48-.242-.7.495-1.518 1.323-1.518 2.464 0 1.696 1.479 2.524 4.518 2.524 2.84-.01 4.669-1.07 4.669-2.706zM93 15.976c-1.999 0-4.058 1.646-4.058 4.413 0 2.636 1.59 4.474 3.868 4.474 1.22 0 4.07-.465 4.07-4.737 0-2.06-1.33-4.15-3.88-4.15zm36.924.434v-3.535h-4.34v-5.15h-3.939v5.16h-2.1v3.535h2.1v9.443c0 3.746 1.94 5.565 5.928 5.565 1.07 0 1.88-.1 2.28-.294l.03-.01V27.54l-.06.02c-.45.131-.88.222-1.85.222-1.719 0-2.388-.889-2.388-3.161v-8.19h4.339v-.02zm-18.947-3.858c4.23 0 9.008 3.494 8.258 10.311h-13.187c.29 3.697 2.47 5.231 5.06 5.231 2.848 0 3.928-1.726 4.418-2.756h3.769c-.22 2.383-3.059 6.069-8.627 6.069-5.09 0-8.61-4.221-8.61-9.25 0-7.17 5.18-9.605 8.919-9.605zm4.249 7.18c-.17-1.888-1.57-3.908-4.18-3.908-2.049 0-4.108.96-4.787 3.909h8.967z" id="Shape" fill="#1F1D1F"/><path d="M18.767.029C8.449.029.09 8.472.09 18.884c0 10.413 8.358 18.866 18.676 18.866 10.318 0 18.666-8.443 18.666-18.866C37.433 8.462 29.075.03 18.767.03m0 31.116c-6.698 0-12.137-5.495-12.137-12.26 0-6.767 5.428-12.261 12.137-12.261 6.708 0 12.137 5.494 12.137 12.26 0 6.776-5.438 12.26-12.137 12.26m0-18.39c3.35 0 6.069 2.747 6.069 6.13s-2.72 6.131-6.07 6.131c-3.348 0-6.068-2.748-6.068-6.13 0-3.384 2.72-6.13 6.069-6.13" id="Shape" fill="#BA0000"/></g></g></svg>